<svg xmlns="http://www.w3.org/2000/svg" width="273" height="274" viewBox="0 0 273 274" fill="none"><circle cx="136.5" cy="137" r="136.5" fill="#FFECDD"></circle><g clip-path="url(#clip0_35_69)"><path d="M128.774 124.321C130.02 122.118 130.295 121.953 132.472 122.722C138.027 124.689 143.595 126.631 149.093 128.738C153.664 130.482 156.531 133.854 157.682 138.598C158.401 141.54 159.024 144.507 159.734 147.664C160.308 147.251 160.757 146.966 161.189 146.648C182.202 131.139 212.589 143.681 216.395 169.433C219.263 188.855 205.351 206.752 185.667 209.021C179.207 209.817 172.656 208.685 166.844 205.769C166.55 205.576 166.202 205.481 165.851 205.497C165.499 205.513 165.161 205.64 164.887 205.86C163.006 207.079 160.795 207.698 158.55 207.632C129.001 207.632 99.4529 207.632 69.9063 207.632C61.9615 207.632 56.8339 201.116 58.5417 193.314C61.2177 181.085 63.9144 168.862 66.632 156.644C67.945 150.71 69.2373 144.772 70.5919 138.846C71.6889 134.032 74.5186 130.581 79.1684 128.804C84.7239 126.689 90.3418 124.734 95.9514 122.751C98.0623 122.003 98.3033 122.135 99.6122 124.292C100.356 122.201 101.062 120.308 101.69 118.387C101.769 118.139 101.436 117.643 101.162 117.412C95.6148 112.775 92.8184 106.792 92.22 99.6758C92.0969 98.7813 91.7338 97.9362 91.1687 97.2295C87.0135 91.7707 85.4469 85.8037 87.7905 79.2126C89.5565 74.2539 93.1923 71.0265 98.1786 69.2951C98.9655 69.0092 99.6368 68.4751 100.09 67.7744C101.033 66.1523 102.29 64.7325 103.789 63.5974C105.287 62.4623 106.998 61.6345 108.821 61.162C110.644 60.6895 112.543 60.5818 114.408 60.8451C116.273 61.1084 118.067 61.7375 119.686 62.6958C120.207 62.9657 120.807 63.0475 121.382 62.9272C129.372 61.109 136.889 66.1669 138.16 74.2456C138.222 74.7521 138.395 75.2389 138.667 75.6712C142.494 81.0432 142.353 86.7582 140.13 92.6137C139.474 94.3514 138.589 95.9952 137.5 97.5022C136.625 98.6948 136.083 100.096 135.929 101.564C135.098 107.792 132.351 113.031 127.523 117.114C126.771 117.751 126.542 118.242 126.92 119.18C127.581 120.78 128.117 122.445 128.774 124.321ZM162.12 203.322C162.028 203.204 161.928 203.092 161.82 202.988C145.536 191.711 142.212 167.45 155.076 152.379C155.593 151.762 155.971 151.041 156.186 150.267C156.401 149.492 156.448 148.681 156.323 147.887C156.178 146.648 155.97 145.441 155.799 144.218C154.831 137.379 151.287 132.61 144.58 130.371C140.803 129.131 137.005 127.891 133.257 126.573C132.247 126.214 131.89 126.536 131.263 127.255C129.65 129.114 128.067 131.114 126.094 132.528C116.624 139.317 103.506 136.834 96.9528 127.156C96.5622 126.581 96.288 126.04 95.3946 126.379C90.9983 128.052 86.5439 129.569 82.1934 131.338C77.6683 133.201 74.6308 136.59 73.4092 141.321C72.2623 145.85 71.4313 150.396 70.4216 154.917C67.6251 167.537 64.866 180.165 62.003 192.773C60.6276 198.814 63.3161 203.24 69.3578 204.232C71.2537 204.487 73.1706 204.552 75.0796 204.426C78.89 204.285 82.6962 204.013 86.7143 203.789V202.492C86.7143 198.517 86.724 194.544 86.7434 190.574C86.6912 189.959 86.7461 189.34 86.9054 188.744C87.0841 188.289 87.5827 187.719 88.0066 187.657C88.2734 187.657 88.5357 187.725 88.7695 187.853C89.0033 187.98 89.2011 188.165 89.3446 188.388C89.7756 189.37 90.0302 190.419 90.0967 191.487C90.1798 194.942 90.0967 198.397 90.0967 201.851V204.149H135.335C135.335 199.897 135.335 195.773 135.335 191.653C135.335 190.826 135.335 189.921 135.684 189.235C136.033 188.549 136.835 188.14 137.442 187.607C137.857 188.252 138.505 188.847 138.626 189.545C138.829 190.698 138.701 191.909 138.701 193.095C138.701 196.744 138.701 200.393 138.701 204C142.091 204.777 159.356 204.265 162.136 203.322H162.12ZM181.753 205.661C199.571 206.211 213.267 190.996 213.333 174.256C213.387 157.35 199.101 143.387 181.815 143.396C164.646 143.396 150.506 157.363 150.501 174.281C150.506 190.723 164.023 206.099 181.77 205.661H181.753ZM94.4098 95.7171C98.2704 93.2007 101.516 89.8573 103.909 85.9318C104.549 84.8822 105.313 84.3326 106.576 84.626C111.366 85.8252 116.369 85.9142 121.199 84.8863C122.798 84.5309 123.758 85.097 124.581 86.5392C126.905 90.547 130.322 93.819 134.437 95.9774C136.078 93.9442 137.217 91.5565 137.762 89.0062C138.676 85.0392 138.393 81.2499 135.979 77.7663C135.406 76.9345 135.02 75.9905 134.845 74.9977C133.702 68.1959 127.988 64.5884 121.34 66.6008C120.883 66.762 120.392 66.8041 119.914 66.723C119.436 66.642 118.987 66.4406 118.61 66.138C113.391 62.4478 106.331 63.8735 103.169 69.4438C102.163 71.2083 100.95 72.0844 99.0803 72.7497C89.2988 76.196 86.8057 88.4111 94.4264 95.7171H94.4098ZM115.007 118.577C118.334 118.463 121.554 117.378 124.265 115.457C129.667 111.697 132.027 106.259 132.7 99.9568C132.742 99.5436 132.223 98.8948 131.795 98.6345C127.863 96.3078 124.499 93.142 121.947 89.3657C121.779 89.0332 121.501 88.7689 121.159 88.6181C120.817 88.4673 120.433 88.4395 120.073 88.5393C116.023 89.16 111.897 89.1084 107.864 88.3864C107.562 88.3891 107.264 88.4596 106.993 88.5927C106.722 88.7258 106.484 88.918 106.298 89.155C104.021 92.3244 101.54 95.3865 98.1911 97.3741C95.6605 98.8783 95.5359 100.585 96.0802 103.064C98.1038 112.296 105.367 118.577 115.007 118.577ZM104.823 119.817C103.963 122.18 103.19 124.47 102.292 126.705C101.848 127.809 102.06 128.495 102.995 129.209C106.219 131.696 110.196 133.023 114.276 132.974C118.494 132.974 122.375 131.846 125.495 128.842C125.877 128.474 126.276 127.726 126.152 127.309C125.4 124.809 124.49 122.35 123.609 119.808C117.33 122.742 111.172 122.788 104.823 119.85V119.817Z" fill="#F89B12"></path><path d="M169.873 79.2539C182.605 79.3242 192.769 89.3781 192.761 101.895C192.75 104.877 192.148 107.828 190.99 110.579C189.832 113.33 188.14 115.827 186.011 117.927C183.882 120.027 181.357 121.69 178.582 122.82C175.807 123.949 172.835 124.524 169.836 124.511C157.208 124.457 147.069 114.147 147.182 101.473C147.29 89.4029 157.719 79.192 169.873 79.2539ZM169.944 121.164C180.361 121.321 189.22 112.709 189.386 102.271C189.416 99.7162 188.939 97.1808 187.981 94.8099C187.024 92.4391 185.606 90.2793 183.808 88.4544C182.01 86.6295 179.867 85.1754 177.503 84.1752C175.139 83.175 172.6 82.6486 170.031 82.6259C159.514 82.4606 150.797 90.969 150.672 101.515C150.547 112.445 158.937 120.999 169.944 121.164Z" fill="#F89B12"></path><path d="M200.938 134.772C199.87 134.772 199.351 134.152 199.276 133.036C199.134 130.648 198.266 128.532 196.205 127.251C194.917 126.521 193.511 126.021 192.05 125.771C190.924 125.54 190.126 125.172 190.138 123.99C190.138 122.875 190.928 122.441 192.004 122.337C196.309 121.899 198.756 119.523 199.255 115.259C199.384 114.156 199.67 113.321 200.954 113.321C202.238 113.321 202.529 114.209 202.666 115.275C203.223 119.61 205.542 121.887 209.909 122.342C210.977 122.453 211.75 122.895 211.754 123.995C211.754 125.197 210.973 125.647 209.818 125.726C205.766 126.061 203.169 128.59 202.687 132.581C202.563 133.672 202.43 134.693 200.938 134.772ZM200.971 121.309L198.262 123.933L200.954 126.676L203.743 124.065L200.971 121.309Z" fill="#1D3677"></path><path d="M83.4191 99.7048C83.3984 100.986 82.5881 101.271 81.4703 101.411C77.5769 101.895 75.117 104.064 74.4397 107.54C74.3441 108.044 74.5103 108.676 74.2568 109.052C73.8704 109.622 73.2346 110.379 72.6862 110.395C72.1377 110.412 71.4063 109.713 71.0448 109.155C70.7456 108.688 70.9243 107.945 70.7997 107.341C70.4881 105.843 69.7177 104.477 68.5942 103.432C67.4707 102.386 66.0493 101.712 64.5252 101.502C64.1097 101.44 63.6942 101.403 63.2787 101.345C62.2939 101.209 61.6664 100.581 61.8991 99.6924C62.0487 99.0932 62.7302 98.556 63.2745 98.1593C63.6111 97.9238 64.1762 98.0188 64.6374 97.9444C66.2886 97.6968 67.8057 96.8972 68.9387 95.6773C70.0717 94.4574 70.753 92.8901 70.8703 91.2336C70.9576 90.0352 71.2069 88.9856 72.6321 88.9938C73.9452 88.9938 74.236 89.9567 74.3275 91.1302C74.6183 94.9196 77.2569 97.527 81.2584 98.0353C82.3928 98.1428 83.3859 98.2957 83.4191 99.7048ZM70.0102 99.6139L72.6446 102.436L75.3372 99.6717L72.7277 96.9237L70.0102 99.6139Z" fill="#1D3677"></path><path d="M160.832 76.0142C160.063 75.0473 159.307 74.5266 159.215 73.9067C158.833 71.3447 157.511 69.9728 154.89 69.6504C154.358 69.5843 153.522 68.6215 153.564 68.1339C153.614 67.5264 154.395 66.5471 154.923 66.481C157.578 66.1752 158.833 64.7578 159.228 62.2123C159.311 61.6668 160.246 60.8321 160.715 60.8734C161.322 60.9313 162.265 61.6751 162.377 62.233C162.793 64.7867 164.064 66.1752 166.703 66.4892C167.243 66.5554 167.991 67.5512 168.041 68.167C168.078 68.6422 167.21 69.5843 166.695 69.6504C164.064 69.9769 162.76 71.3695 162.394 73.9315C162.29 74.5059 161.6 75.0101 160.832 76.0142Z" fill="#1D3677"></path><path d="M181.936 195.401C172.691 195.401 164.92 189.942 162.024 181.409C161.393 179.549 162.024 178.619 163.969 178.615C175.936 178.615 187.903 178.615 199.87 178.615C201.831 178.615 202.471 179.553 201.848 181.388C198.944 189.917 191.157 195.397 181.936 195.401ZM166.092 182.041C167.974 187.731 175.234 192.273 182.111 192.169C188.988 192.066 196.155 187.43 197.722 182.041H166.092Z" fill="#F15C24"></path><path d="M168.527 158.21C172.292 158.21 175.591 161.26 175.77 164.884C175.832 165.983 175.591 166.921 174.382 167.094C173.069 167.285 172.495 166.4 172.429 165.243C172.254 162.189 169.142 160.95 166.902 161.937C166.227 162.211 165.647 162.676 165.233 163.273C164.82 163.871 164.591 164.576 164.575 165.301C164.48 166.47 163.935 167.206 162.747 167.099C161.446 166.983 161.085 166.041 161.222 164.863C161.389 163.049 162.231 161.362 163.581 160.132C164.932 158.902 166.695 158.217 168.527 158.21Z" fill="#F15C24"></path><path d="M195.258 158.247C197.145 158.2 198.975 158.897 200.348 160.186C201.721 161.475 202.526 163.251 202.588 165.128C202.625 166.21 202.259 166.999 201.125 167.107C199.991 167.214 199.367 166.611 199.297 165.483C199.106 162.355 196.43 161.152 194.223 161.764C192.395 162.264 191.539 163.59 191.369 165.392C191.26 166.574 190.658 167.239 189.465 167.111C188.418 166.999 188.04 166.285 188.048 165.239C188.059 164.309 188.254 163.39 188.622 162.534C188.99 161.679 189.524 160.905 190.194 160.255C190.864 159.606 191.656 159.094 192.525 158.749C193.394 158.405 194.322 158.234 195.258 158.247Z" fill="#F15C24"></path><path d="M169.94 114.532C166.337 114.473 162.863 113.187 160.1 110.887C159.178 110.122 158.77 109.234 159.572 108.226C160.374 107.217 161.338 107.556 162.265 108.267C167.305 112.135 172.753 112.127 177.776 108.23C178.699 107.511 179.621 107.102 180.498 108.097C181.446 109.172 180.851 110.073 179.921 110.858C177.131 113.212 173.597 114.512 169.94 114.532Z" fill="#F15C24"></path><path d="M178.475 90.9278C179.163 90.9091 179.848 91.0298 180.487 91.2825C181.127 91.5352 181.709 91.9147 182.196 92.3978C182.684 92.8809 183.068 93.4577 183.325 94.0929C183.581 94.7282 183.705 95.4087 183.689 96.0932C183.719 96.7772 183.609 97.4602 183.364 98.1002C183.12 98.7403 182.746 99.324 182.267 99.8157C181.788 100.307 181.213 100.697 180.577 100.96C179.942 101.223 179.259 101.354 178.57 101.345C177.87 101.372 177.172 101.256 176.519 101.003C175.866 100.749 175.272 100.365 174.775 99.8741C174.278 99.3829 173.888 98.7952 173.63 98.1475C173.371 97.4999 173.249 96.8062 173.272 96.1097C173.258 95.4259 173.382 94.7462 173.638 94.1114C173.894 93.4767 174.277 92.9 174.763 92.4159C175.249 91.9319 175.828 91.5506 176.466 91.2948C177.104 91.0391 177.787 90.9143 178.475 90.9278ZM178.475 94.2336C177.34 94.3989 176.646 94.9898 176.675 96.1634C176.704 97.337 177.378 97.9692 178.549 97.9444C179.721 97.9196 180.365 97.1882 180.349 96.0642C180.332 94.9403 179.588 94.3328 178.462 94.2419L178.475 94.2336Z" fill="#F15C24"></path><path d="M161.442 101.345C158.45 101.345 156.298 99.1469 156.298 96.1428C156.298 93.1386 158.459 90.9484 161.442 90.9319C162.142 90.9125 162.839 91.0367 163.489 91.2967C164.138 91.5567 164.727 91.947 165.219 92.4431C165.71 92.9393 166.094 93.5308 166.346 94.1808C166.597 94.8308 166.712 95.5254 166.682 96.2213C166.692 96.9044 166.563 97.5826 166.303 98.2147C166.042 98.8468 165.655 99.4197 165.165 99.8988C164.675 100.378 164.093 100.753 163.453 101.002C162.813 101.25 162.129 101.367 161.442 101.345ZM161.471 94.2419C160.283 94.3989 159.597 95.0683 159.63 96.1841C159.615 96.4312 159.654 96.6787 159.746 96.9088C159.838 97.1389 159.98 97.3459 160.162 97.515C160.344 97.6841 160.561 97.811 160.799 97.8867C161.036 97.9623 161.287 97.9849 161.533 97.9527C162.701 97.9072 163.316 97.2213 163.299 96.0601C163.283 94.8989 162.539 94.3493 161.471 94.2419Z" fill="#F15C24"></path></g><defs><clipPath id="clip0_35_69"><rect width="158.581" height="148.544" fill="white" transform="translate(58.2134 60.7206)"></rect></clipPath></defs></svg>