<svg xmlns="http://www.w3.org/2000/svg" width="273" height="274" viewBox="0 0 273 274" fill="none"><circle cx="136.5" cy="137" r="136.5" fill="#FFECDD"></circle><g clip-path="url(#clip0_35_68)"><path d="M194.095 82.655C189.131 83.9729 184.395 85.2105 179.7 86.4733C165.198 90.345 150.701 94.2168 136.21 98.0885C135.206 98.362 134.15 98.381 133.137 98.1436C112.477 92.645 91.8231 87.1214 71.1761 81.5727C69.9797 81.252 68.7685 80.9613 68.7933 79.433C68.8182 77.9047 70.1187 77.6642 71.2754 77.3535C91.6841 71.8817 112.096 66.4232 132.512 60.978C133.871 60.6348 135.292 60.6348 136.652 60.978C156.958 66.3664 177.249 71.8015 197.525 77.2834C200.35 78.045 200.35 78.045 200.072 80.9613C200.037 81.3371 200.072 81.713 200.072 82.0888C200.072 92.2358 200.072 102.383 200.042 112.53C200.042 113.757 200.325 114.599 201.492 115.035C204.678 116.158 205.532 118.403 205.349 121.73C205.056 126.971 205.324 132.253 205.225 137.504C205.225 138.451 204.808 139.839 204.152 140.19C203.497 140.541 202.167 140.009 201.407 139.463C196.334 135.78 197.764 135.855 192.68 139.508C191.931 140.039 190.65 140.445 189.91 140.155C189.34 139.929 188.962 138.521 188.952 137.649C188.868 131.576 188.952 125.503 188.878 119.425C188.878 117.851 189.285 116.694 190.774 116.173C193.619 115.171 194.249 113.236 194.189 110.295C193.971 101.847 194.11 93.3883 194.11 84.935L194.095 82.655Z" fill="#1D3677"></path><path d="M183.174 91.875C183.214 92.6517 183.264 93.2029 183.264 93.7591C183.264 103.156 183.264 112.552 183.264 121.945C183.264 124.451 182.986 124.857 180.529 125.318C168.592 127.549 156.648 129.764 144.698 131.962C136.522 133.465 128.386 132.844 120.285 131.311L89.0466 125.393C86.0086 124.816 85.8696 124.641 85.8696 121.474V91.7798C88.7339 92.5364 91.4194 93.2279 94.095 93.9445C106.728 97.2917 119.342 100.744 131.995 104.036C133.608 104.459 135.298 104.48 136.92 104.097C151.851 100.203 166.748 96.1843 181.685 92.2007C182.067 92.0905 182.484 92.0203 183.174 91.875Z" fill="#1D3677"></path><path d="M153.35 200.629C152.437 208.075 148.883 211.257 141.705 211.262C137.852 211.262 134.005 211.292 130.158 211.262C124.599 211.192 120.627 207.584 120.056 202.007C119.947 200.915 119.56 200.534 118.508 200.373C98.2247 197.26 77.9433 194.13 57.6637 190.983C54.2335 190.452 50.7984 189.951 47.3683 189.405C45.1841 189.059 43.9828 187.736 44.1863 185.982C44.3998 184.123 45.8642 183.116 48.2171 183.477C58.2693 184.98 68.3164 186.548 78.3686 188.107L121.188 194.766C121.928 194.881 122.677 194.992 123.392 195.137C124.044 195.235 124.644 195.553 125.095 196.039C125.545 196.525 125.82 197.15 125.874 197.813C125.927 198.12 125.945 198.433 125.929 198.745C125.477 203.906 127.175 205.565 132.556 205.299C135.837 205.139 139.133 205.299 142.424 205.269C145.715 205.239 147.215 203.766 147.254 200.479C147.309 196.325 148.247 195.358 152.382 194.721C168.81 192.192 185.229 189.633 201.64 187.045L224.246 183.537C224.615 183.478 224.986 183.44 225.358 183.422C227.205 183.311 228.51 184.238 228.793 185.847C229.076 187.455 228.044 188.969 226.152 189.309C222.678 189.936 219.178 190.442 215.683 190.988L168.282 198.309L153.35 200.629Z" fill="#F15C24"></path><path d="M223.8 143.61C222.544 147.318 221.318 150.971 220.032 154.594C219.923 154.91 219.282 155.196 218.875 155.221C203.125 156.062 188.525 161.098 174.428 167.828C161.248 174.112 148.982 181.863 138.002 191.594C137.827 191.758 137.603 191.858 137.366 191.88C144.529 177.795 154.924 166.776 168.257 158.498C186.704 147.038 209.682 143.029 223.8 143.61Z" fill="#F15C24"></path><path d="M49.145 143.38C69.1153 143.645 87.6311 148.105 104.568 158.412C117.849 166.388 128.653 177.957 135.757 191.81C130.59 187.941 125.636 183.903 120.369 180.345C103.953 169.271 86.3454 160.803 66.9212 156.664C62.811 155.787 58.5816 155.486 54.4118 154.875C53.8608 154.795 52.9921 154.609 52.8631 154.253C51.5724 150.756 50.4208 147.213 49.145 143.38Z" fill="#F15C24"></path><path d="M55.0278 160.823C80.1061 163.754 101.466 174.437 121.432 188.563C117.535 187.205 113.668 185.747 109.736 184.514C97.8921 180.801 85.7154 178.957 73.3699 178.2C69.5972 177.97 65.8097 177.955 62.0321 177.774C61.5357 177.774 60.7216 177.434 60.5875 177.058C58.736 171.832 56.9787 166.575 55.0278 160.823Z" fill="#F15C24"></path><path d="M151.583 188.658C171.519 174.442 192.894 163.839 217.863 161.158C215.986 166.67 214.284 171.821 212.437 176.918C212.268 177.384 211.216 177.724 210.551 177.774C202.216 178.431 193.847 178.777 185.542 179.704C174.206 181.011 163.108 183.915 152.571 188.332C152.253 188.478 151.901 188.553 151.583 188.658Z" fill="#F15C24"></path></g><defs><clipPath id="clip0_35_68"><rect width="184.676" height="150.551" fill="white" transform="translate(44.1616 60.7206)"></rect></clipPath></defs></svg>