<svg xmlns="http://www.w3.org/2000/svg" width="273" height="274" viewBox="0 0 273 274" fill="none"><circle cx="136.5" cy="137" r="136.5" fill="#FFECDD"></circle><g clip-path="url(#clip0_35_70)"><path d="M210.772 161.071V176.458C210.718 176.536 210.629 176.613 210.617 176.695C209.839 183.229 206.746 189.269 201.9 193.718C201.787 193.88 201.708 194.063 201.668 194.257C201.628 194.45 201.628 194.65 201.668 194.843C201.912 196.313 202.304 197.763 202.513 199.237C202.986 202.575 203.381 205.922 203.807 209.265H69.1894C69.6274 205.868 70.0925 202.471 70.4917 199.07C70.8521 195.999 71.4413 192.951 73.5498 190.616C75.0769 188.925 76.9722 187.541 78.8288 186.195C80.2047 185.195 80.3791 183.345 79.1233 182.318C77.7551 181.185 76.135 180.088 75.3366 178.591C73.9916 176.074 72.1893 175.52 69.5227 175.632C65.922 175.784 63.2515 173.527 62.4298 170.203C61.6275 166.977 63.0461 163.972 66.1274 162.137C66.3547 161.969 66.5459 161.756 66.6897 161.513C66.8335 161.269 66.927 160.999 66.9646 160.718C67.1313 159.086 66.9878 157.414 67.2359 155.797C68.9258 144.714 78.9334 136.555 89.7162 137.378C101.367 138.269 110.022 147.336 110.041 158.853C110.041 160.823 110.309 162.308 112.317 163.018C112.414 163.047 112.514 163.069 112.615 163.084C112.821 162.89 113.055 162.729 113.309 162.607C114.902 162.137 114.995 160.97 114.956 159.559C114.871 156.755 114.879 153.944 114.956 151.14C115.058 148.046 116.168 145.071 118.119 142.669C120.07 140.266 122.753 138.568 125.758 137.835C126.867 137.56 128.01 137.447 129.111 137.23C129.161 137.127 129.198 137.017 129.219 136.904C129.219 127.985 129.266 119.097 129.177 110.198C129.177 109.461 128.468 108.534 127.82 108.046C126.975 107.41 125.948 107.728 125.192 108.484C124.437 109.24 123.778 110.035 123.293 110.555C119.727 107.01 116.386 103.691 112.855 100.189C113.644 99.558 114.391 98.8767 115.092 98.1494C116.254 96.796 115.642 94.4848 113.968 94.3763C110.867 94.1707 107.766 94.3181 104.483 94.3181C104.786 94.9579 105.003 95.431 105.235 95.8964C108.262 101.946 111.301 107.987 114.293 114.052C114.653 114.726 114.851 115.475 114.871 116.239C114.662 123.879 109.406 130.475 101.906 132.026C98.9214 132.643 95.7548 132.643 92.6812 132.526C84.7007 132.232 78.2977 126.539 76.821 118.694C76.3997 116.803 76.6605 114.824 77.5574 113.106C80.5574 107.375 83.3713 101.55 86.2782 95.7568C86.4992 95.3147 86.6658 94.8571 86.9643 94.2056C85.0535 94.2056 83.4139 94.225 81.7744 94.2056C78.5264 94.1552 76.6427 92.2939 76.573 89.0753C76.5497 87.8654 76.573 86.6555 76.573 85.4456C76.573 81.5678 78.3753 79.8034 82.2783 79.8034C92.3867 79.8034 102.492 79.8034 112.596 79.8034C113.844 79.8034 114.956 79.6172 115.495 78.3608C116.034 77.1044 115.448 76.0341 114.483 75.1538C113.898 74.6148 113.363 74.0215 112.933 73.5678L123.231 63.2567C123.828 63.9469 124.367 64.9009 125.169 65.4205C125.956 65.897 126.882 66.0887 127.793 65.9634C128.809 65.7812 129.266 64.8001 129.247 63.722C129.247 62.7215 129.247 61.7249 129.247 60.7206H143.673C143.673 61.6862 143.704 62.5509 143.673 63.4118C143.622 64.5751 143.971 65.5446 145.103 66.0099C146.235 66.4753 147.277 66.1146 148.087 65.184C148.657 64.5286 149.219 63.8655 149.7 63.3032L160.165 73.7733C159.365 74.3956 158.605 75.0678 157.889 75.7859C157.604 76.0711 157.398 76.4256 157.291 76.8147C157.184 77.2038 157.179 77.614 157.279 78.0052C157.378 78.3963 157.577 78.7549 157.857 79.0457C158.137 79.3365 158.487 79.5495 158.874 79.6638C159.439 79.7852 160.018 79.8269 160.595 79.7879C170.801 79.7879 181.008 79.7879 191.215 79.7879C194.358 79.7879 196.28 81.688 196.366 84.829C196.397 86.132 196.366 87.4427 196.366 88.7457C196.335 92.3443 194.497 94.1746 190.897 94.2018C189.323 94.2018 187.746 94.2018 185.943 94.2018C186.292 94.9773 186.521 95.4737 186.773 95.9778C189.773 101.985 192.788 107.999 195.757 114.01C196.111 114.686 196.305 115.434 196.323 116.197C196.248 119.555 195.162 122.812 193.208 125.543C191.254 128.274 188.522 130.352 185.37 131.506C181.672 132.887 177.839 132.697 174.044 132.511C166.238 132.123 160.044 126.729 158.397 119.121C157.94 117.007 158.01 115.045 159.087 112.982C162.106 107.313 164.901 101.515 167.758 95.7684C167.982 95.3147 168.176 94.8416 168.451 94.2367C165.304 94.2367 162.355 94.1475 159.42 94.3026C159.011 94.3712 158.622 94.5341 158.286 94.7784C157.95 95.0226 157.675 95.3416 157.483 95.7102C157.37 96.1102 157.347 96.5298 157.414 96.9398C157.481 97.3497 157.637 97.74 157.87 98.0835C158.502 98.9482 159.533 99.5221 160.196 100.077L149.731 110.714C149.266 110.163 148.781 109.55 148.262 108.984C147.401 108.03 146.428 107.367 145.076 107.968C143.804 108.534 143.649 109.632 143.649 110.873C143.673 118.95 143.649 127.031 143.649 135.113C143.649 135.528 143.696 135.947 143.731 136.497C146.897 135.625 148.99 133.418 151.13 131.216C155.165 136.61 157.641 142.399 157.893 148.984C158.041 152.893 157.92 156.809 157.92 160.726C158.184 160.155 158.369 159.551 158.471 158.93C159.569 153.006 162.657 147.635 167.225 143.707C171.792 139.779 177.564 137.531 183.583 137.335C195.68 136.916 206.788 145.23 209.827 156.988C210.237 158.333 210.478 159.71 210.772 161.071ZM176.118 183.093C171.707 180.406 168.754 176.633 168.002 171.58C167.517 168.261 167.614 164.821 167.781 161.459C167.94 158.55 169.777 156.608 172.49 155.584C173.928 155.037 175.397 154.587 176.87 154.091C176.199 152.749 175.583 151.512 174.889 150.128L179.308 148.635C179.451 148.74 179.502 148.759 179.525 148.798C179.602 148.922 179.671 149.052 179.73 149.185C181.281 152.582 183.858 154.583 187.563 155.091C190.098 155.44 192.649 155.696 195.172 156.111C196.838 156.362 198.36 157.202 199.462 158.478C200.564 159.754 201.173 161.382 201.179 163.068C201.222 164.906 201.23 166.748 201.179 168.582C201.027 174.391 198.58 178.983 193.839 182.356C192.602 183.237 192.676 185.211 193.986 186.079C195.695 187.243 197.381 188.406 199.207 189.678C201.976 187.143 203.963 183.87 204.935 180.243C206.714 173.298 206.555 166.163 205.4 159.217C203.687 148.933 194.195 141.895 183.439 142.186C173.463 142.457 164.498 150.26 163.227 160.268C162.657 164.747 162.897 169.342 162.889 173.883C162.889 179.483 164.882 184.354 168.521 188.58C168.869 189.022 169.188 189.484 169.478 189.965C171.106 188.693 172.234 187.46 173.633 186.8C175.281 185.998 175.835 184.792 176.118 183.093ZM96.875 183.093C97.1656 184.803 97.8013 185.912 99.3672 186.785C103.297 188.968 105.569 192.485 106.344 196.937C106.697 199.031 106.91 201.152 107.286 203.242C107.363 203.681 107.855 204.383 108.173 204.406C111.297 204.495 114.429 204.46 117.63 204.46C117.844 203.076 118.111 201.85 118.208 200.609C118.704 194.257 120.921 188.976 127.022 186.005C128.301 185.381 128.15 183.291 127.165 182.372C125.357 180.725 123.688 178.933 122.173 177.013C121.433 176.036 120.836 175.605 119.646 175.671C117.115 175.818 114.607 175.772 112.925 174.197C111.08 174.748 109.561 175.322 107.991 175.632C106.921 175.846 105.77 175.632 104.669 175.725C104.427 175.744 104.191 175.812 103.975 175.925C103.76 176.039 103.57 176.195 103.417 176.385C101.863 179.157 99.6064 181.472 96.875 183.097V183.093ZM153.138 161.04C153.083 153.459 154.3 145.761 150.262 138.762C143.068 142.077 142.746 142.163 137.293 142.163C134.541 142.163 131.785 142.128 129.03 142.163C124.487 142.248 120.479 145.486 119.979 150C119.592 153.467 119.906 157.011 119.906 160.586C120.541 158.647 121.584 156.964 123.464 156.1C125.243 155.281 127.123 154.696 128.921 154.017C128.266 152.707 127.65 151.477 126.983 150.105L131.549 148.577C133.192 152.52 136.037 154.684 140.149 155.169C141.254 155.293 142.359 155.413 143.46 155.557C144.949 155.693 146.431 155.911 147.897 156.208C150.459 156.852 152.052 158.659 153.138 161.04ZM76.6156 166.081H76.6583C76.6583 167.148 76.604 168.214 76.6583 169.273C76.8324 172.173 78.0564 174.911 80.1015 176.974C82.1467 179.038 84.8728 180.285 87.7704 180.483C90.6442 180.68 93.4914 179.825 95.7823 178.078C98.0731 176.331 99.6515 173.811 100.224 170.987C100.565 169.203 100.503 167.334 100.518 165.503C100.557 161.09 100.379 160.997 95.9951 160.462C92.468 160.028 88.8363 159.966 85.6348 158.058C85.2891 157.906 84.8992 157.89 84.5418 158.011C82.4721 158.671 80.4179 159.373 78.3404 160.067C77.8205 160.207 77.3641 160.521 77.0463 160.956C76.7285 161.391 76.5684 161.921 76.5923 162.459C76.6079 163.658 76.6195 164.867 76.6195 166.073L76.6156 166.081ZM172.451 165.98C172.451 166.899 172.451 167.818 172.451 168.734C172.506 171.691 173.652 174.523 175.667 176.687C177.682 178.85 180.425 180.193 183.37 180.456C186.214 180.718 189.056 179.941 191.373 178.27C193.69 176.598 195.324 174.145 195.974 171.363C196.393 169.505 196.362 167.528 196.362 165.604C196.412 161.056 196.261 161.001 191.792 160.447C188.265 160.012 184.633 159.946 181.44 158.023C181.086 157.889 180.696 157.889 180.343 158.023C178.275 158.685 176.208 159.373 174.141 160.086C173.622 160.23 173.169 160.549 172.857 160.988C172.545 161.427 172.393 161.96 172.428 162.498L172.451 165.98ZM124.541 166.008C124.541 166.927 124.518 167.846 124.541 168.765C124.596 171.72 125.742 174.55 127.757 176.711C129.773 178.872 132.517 180.21 135.46 180.468C141.359 181.065 146.952 176.935 148.153 170.921C148.498 169.191 148.409 167.365 148.421 165.581C148.456 161.052 148.335 161.017 143.832 160.454C140.308 160.016 136.677 159.946 133.483 158.019C133.13 157.885 132.739 157.885 132.386 158.019C130.363 158.663 128.351 159.342 126.34 160.02C125.772 160.17 125.276 160.519 124.942 161.002C124.608 161.486 124.458 162.072 124.518 162.657C124.568 163.774 124.545 164.887 124.545 166L124.541 166.008ZM155.37 204.464C158.471 204.464 161.386 204.41 164.285 204.491C165.389 204.518 165.665 204.057 165.8 203.091C166.157 200.509 166.517 197.922 167.064 195.378C167.261 194.448 167.196 193.912 166.498 193.249C162.498 189.473 159.765 184.55 158.676 179.157C158.413 177.912 158.289 176.637 158.13 175.69C156.192 175.69 154.397 175.64 152.626 175.725C152.363 175.746 152.107 175.823 151.876 175.949C151.644 176.075 151.441 176.249 151.281 176.458C149.844 178.992 147.825 181.147 145.39 182.744C145.149 182.899 144.816 183.291 144.87 183.462C145.231 184.559 145.304 185.715 146.626 186.401C150.89 188.607 153.417 192.167 154.231 196.906C154.649 199.365 154.983 201.843 155.374 204.456L155.37 204.464ZM119.568 73.626C121.627 78.5935 120.456 81.6415 115.549 84.2978C115.366 84.4533 115.221 84.6481 115.123 84.8676C115.026 85.0871 114.979 85.3258 114.987 85.5658C115.053 86.9425 115.262 88.3113 115.433 89.6802C115.433 89.7229 115.607 89.7384 115.692 89.7772C120.041 91.7161 121.506 95.3147 119.863 99.7432C119.803 99.9909 119.804 100.25 119.868 100.496C119.932 100.743 120.055 100.971 120.227 101.159C121.347 102.023 121.824 103.733 123.568 103.776C123.654 103.776 123.735 103.683 123.824 103.648C128.045 101.95 131.863 103.551 133.7 107.735C133.79 107.926 133.921 108.095 134.084 108.229C134.246 108.363 134.437 108.46 134.642 108.511C136.084 108.6 137.529 108.55 138.975 108.55C139.184 108.022 139.363 107.565 139.541 107.13C140.96 104.001 144.665 102.054 147.828 103.253C149.766 103.982 150.851 103.524 151.924 102.089C152.126 101.817 152.366 101.575 152.638 101.372C153.366 100.821 153.413 100.271 153.048 99.398C152.3 97.6722 152.26 95.7209 152.938 93.9662C153.617 92.2114 154.958 90.7944 156.672 90.0215C157.103 89.8276 157.548 89.6763 158.033 89.4863C158.033 88.1601 157.994 86.9037 158.033 85.655C158.068 84.8252 157.851 84.3792 156.986 84.0729C154.963 83.3593 153.63 81.8664 152.874 79.8615C152.501 78.8677 152.353 77.8034 152.44 76.7454C152.527 75.6873 152.847 74.6617 153.378 73.7423L149.839 70.0506C145.037 72.1408 141.448 70.8262 139.246 66.1728C139.13 65.9285 138.94 65.533 138.77 65.5252C137.279 65.4055 135.781 65.4198 134.293 65.5679C133.867 65.626 133.591 66.6885 133.227 67.278C132.983 67.6938 132.711 68.0929 132.413 68.4724C130.212 71.1325 126.952 71.6832 123.045 70.0506C121.933 71.1868 120.797 72.3773 119.572 73.6182L119.568 73.626ZM108.588 113.316C108.29 112.687 108.096 112.253 107.883 111.83C105.728 107.51 103.58 103.183 101.406 98.8745C100.631 97.3234 100.135 95.2294 98.8633 94.4577C97.592 93.686 95.4874 94.2871 93.7549 94.1862C92.8014 94.132 92.282 94.446 91.8557 95.3186C89.1115 100.907 86.3093 106.471 83.5341 112.048C83.3519 112.435 83.2279 112.823 83.0263 113.316H108.588ZM190.036 113.316C189.742 112.68 189.548 112.253 189.339 111.83C187.187 107.507 185.044 103.179 182.874 98.8668C182.098 97.3157 181.602 95.2255 180.331 94.4577C179.06 93.6899 176.955 94.2793 175.223 94.1862C174.273 94.132 173.754 94.4344 173.319 95.3147C170.579 100.907 167.769 106.467 164.99 112.04C164.804 112.428 164.672 112.815 164.471 113.316H190.036ZM79.0303 150.124L83.6271 148.596C85.4449 153.021 88.7627 154.979 93.2549 155.301C95.2238 155.444 97.1811 155.782 99.1423 156.076C101.619 156.433 103.406 157.783 104.569 159.981C104.759 160.342 104.925 160.714 105.162 161.199C106.324 155.541 103.224 148.631 97.9912 145.056C95.2337 143.192 91.9851 142.19 88.6576 142.177C85.3301 142.164 82.0737 143.14 79.3016 144.982C74.1273 148.433 70.949 155.223 72.0382 160.769C73.2009 155.898 77.5071 155.444 81.0613 154.099L79.0303 150.124ZM191.153 118.237H163.246C163.913 122.545 167.51 126.655 171.998 127.299C175.477 127.803 179.011 127.803 182.49 127.299C186.982 126.617 190.703 122.32 191.156 118.233L191.153 118.237ZM81.6892 118.19C82.7279 122.541 85.2085 125.666 89.3518 126.981C93.5277 128.319 98.0169 128.319 102.193 126.981C106.321 125.659 108.782 122.541 109.832 118.194L81.6892 118.19ZM162.917 89.2653H191.509V84.7399H162.917V89.2653ZM81.4334 89.2653H110.03V84.7282H81.4334V89.2653ZM198.381 204.348C198.133 202.513 197.916 200.858 197.676 199.171C197.563 198.395 197.544 197.589 197.234 196.906C196.643 195.443 195.888 194.052 194.982 192.761C194.28 191.842 193.121 191.275 192.164 190.55L186.8 194.277V204.359L198.381 204.348ZM182.029 204.348C182.029 202.347 181.777 200.431 182.083 198.608C182.703 194.882 181.308 192.458 177.94 191.02C177.85 190.985 177.777 190.876 177.695 190.872C177.184 190.837 176.567 190.628 176.176 190.833C174.137 191.915 172.556 193.548 171.959 195.77C171.215 198.531 170.854 201.397 170.3 204.348H182.029ZM138.77 137.238V113.482H134.243V137.265L138.77 137.238ZM102.65 204.421C102.162 201.567 101.98 198.833 101.166 196.309C100.619 194.614 99.3517 193.044 98.092 191.718C96.6385 190.19 96.4486 190.298 95.0223 191.834C94.4487 192.454 93.6424 193.331 93.72 193.998C94.1075 197.201 94.7044 200.373 95.2703 203.549C95.3323 203.871 95.7199 204.375 95.968 204.383C98.1385 204.468 100.29 204.441 102.654 204.441L102.65 204.421ZM122.417 204.421C124.809 204.421 126.882 204.464 128.948 204.375C129.258 204.375 129.723 203.766 129.809 203.378C130.27 200.958 130.475 198.477 131.095 196.103C131.642 194.021 131.243 192.551 129.545 191.217C128.812 190.643 128.382 190.62 127.685 191.101C125.84 192.388 124.382 194.04 123.859 196.216C123.235 198.857 122.906 201.548 122.421 204.448L122.417 204.421ZM150.607 204.421C150.06 201.435 149.762 198.636 148.979 195.979C148.556 194.533 147.475 193.176 146.409 192.047C144.63 190.159 144.448 190.217 142.692 192.086C142.188 192.617 141.584 193.447 141.657 194.064C142.045 197.224 142.615 200.365 143.208 203.498C143.284 203.713 143.411 203.906 143.58 204.06C143.748 204.213 143.952 204.323 144.173 204.379C146.188 204.495 148.211 204.452 150.611 204.452L150.607 204.421ZM74.4993 204.421C76.9024 204.421 78.9683 204.464 81.0302 204.375C81.3481 204.375 81.8326 203.762 81.9062 203.37C82.3752 200.908 82.5612 198.376 83.2085 195.964C83.7705 193.877 83.2085 192.528 81.6233 191.221C80.8985 190.62 80.4605 190.624 79.7706 191.101C77.9295 192.388 76.4683 194.033 75.9451 196.212C75.321 198.849 75.0032 201.536 74.5032 204.448L74.4993 204.421ZM84.848 185.067C84.0147 187.045 84.3907 187.933 86.8906 189.763C87.6387 190.314 89.8053 190.151 90.5146 189.515C93.2704 186.987 93.282 186.952 92.2239 185.067H84.848ZM132.754 185.067C131.917 187.091 132.2 187.782 134.781 189.74C135.526 190.31 137.684 190.186 138.405 189.534C141.177 187.033 141.188 186.998 140.149 185.067H132.754ZM180.641 185.067C180.469 185.457 180.339 185.864 180.253 186.281C180.153 187.025 184.16 189.67 184.815 189.267C186.153 188.445 187.432 187.533 188.749 186.653L188.172 185.067H180.641ZM88.9216 194.917H88.2395C87.7085 198.019 87.1813 201.152 86.6387 204.351H90.5146C89.9604 201.075 89.4448 197.988 88.9216 194.917ZM138.456 204.406C137.894 201.11 137.363 198.003 136.828 194.893H136.15C135.626 198.031 135.099 201.168 134.56 204.39L138.456 204.406ZM71.7901 166.108C70.0033 166.17 68.1816 165.624 67.3561 167.485C67.2148 167.901 67.1669 168.342 67.2158 168.779C67.2647 169.215 67.4092 169.635 67.639 170.009C68.7204 171.487 70.3909 170.843 71.7901 170.897V166.108ZM119.716 166.108C117.952 166.147 116.196 165.62 115.34 167.361C115.177 167.767 115.105 168.204 115.129 168.641C115.153 169.077 115.273 169.504 115.479 169.889C116.553 171.491 118.293 170.832 119.716 170.878V166.108ZM105.22 170.897C106.937 170.82 108.79 171.51 109.743 169.653C109.903 169.247 109.972 168.811 109.946 168.376C109.92 167.94 109.799 167.516 109.592 167.132C108.619 165.627 106.976 166.155 105.456 166.108C105.375 167.745 105.301 169.23 105.22 170.894V170.897ZM153.281 166.135V170.874C154.75 170.804 156.525 171.475 157.545 169.8C157.738 169.407 157.842 168.977 157.85 168.539C157.858 168.101 157.77 167.667 157.591 167.268C156.692 165.612 154.975 166.132 153.297 166.132L153.281 166.135Z" fill="#1D3677"></path><path d="M82.2085 172.588L85.2472 169.529C86.4448 170.009 87.5185 170.77 88.596 170.781C89.6735 170.793 90.6812 170.037 91.72 169.618L91.9758 169.001C92.4254 169.618 92.8362 170.269 93.3401 170.839C93.844 171.409 94.4486 171.91 94.9951 172.429C91.9874 176.66 85.817 176.741 82.2085 172.588Z" fill="#1EB574"></path><path d="M178.129 172.639L181.308 169.308C183.804 171.378 185.048 171.39 187.924 168.951C188.29 169.604 188.702 170.232 189.156 170.828C189.683 171.37 190.247 171.875 190.842 172.34C187.997 176.691 181.292 176.726 178.129 172.639Z" fill="#1EB574"></path><path d="M130.118 172.584L133.153 169.517C134.347 170.002 135.413 170.766 136.49 170.781C137.568 170.797 138.572 170.04 139.789 169.556L142.699 172.705C139.959 176.656 133.727 176.73 130.118 172.584Z" fill="#1EB574"></path><path d="M119.711 86.9735C119.742 82.5228 121.528 78.2643 124.682 75.1248C127.835 71.9852 132.1 70.2187 136.548 70.2096C140.998 70.2444 145.253 72.0367 148.388 75.1962C151.523 78.3557 153.283 82.6264 153.285 87.0782C153.233 91.5052 151.448 95.7353 148.313 98.8597C145.177 101.984 140.942 103.754 136.517 103.788C132.068 103.762 127.808 101.983 124.662 98.8348C121.516 95.687 119.737 91.425 119.711 86.9735ZM136.568 75.0336C133.414 75.0016 130.377 76.2238 128.124 78.4314C125.871 80.6391 124.586 83.6517 124.552 86.8067C124.523 88.3809 124.806 89.9454 125.384 91.4098C125.962 92.8743 126.824 94.2097 127.92 95.3391C129.017 96.4686 130.326 97.3697 131.772 97.9904C133.218 98.6112 134.773 98.9393 136.347 98.9559C137.92 98.9795 139.482 98.6912 140.943 98.1075C142.404 97.5239 143.735 96.6565 144.86 95.5555C145.984 94.4544 146.879 93.1415 147.494 91.6925C148.108 90.2435 148.43 88.6871 148.44 87.1131C148.463 85.5372 148.174 83.9724 147.588 82.5093C147.002 81.0463 146.132 79.7142 145.027 78.5905C143.923 77.4667 142.606 76.5736 141.154 75.963C139.702 75.3524 138.143 75.0365 136.568 75.0336Z" fill="#F89B12"></path><path d="M136.518 79.7957C138.42 79.816 140.239 80.5834 141.582 81.9325C142.925 83.2817 143.684 85.1046 143.696 87.0084C143.672 88.9139 142.902 90.7341 141.551 92.0773C140.2 93.4204 138.376 94.1791 136.471 94.1902C134.568 94.1669 132.749 93.3975 131.406 92.0475C130.063 90.6974 129.303 88.8743 129.289 86.9696C129.311 85.0639 130.082 83.2433 131.434 81.9011C132.787 80.5589 134.613 79.8026 136.518 79.7957ZM136.518 84.6391C136.203 84.6267 135.89 84.6791 135.597 84.7928C135.304 84.9065 135.037 85.0792 134.813 85.3002C134.589 85.5212 134.413 85.7858 134.296 86.0776C134.178 86.3695 134.122 86.6823 134.13 86.9968C134.12 87.6073 134.349 88.1975 134.77 88.6401C135.19 89.0826 135.768 89.342 136.378 89.3623C136.692 89.3806 137.007 89.3351 137.303 89.2284C137.598 89.1216 137.87 88.956 138.1 88.7414C138.33 88.5268 138.514 88.2677 138.641 87.9798C138.768 87.692 138.836 87.3813 138.839 87.0666C138.857 86.7529 138.811 86.4388 138.703 86.1438C138.594 85.8489 138.427 85.5793 138.21 85.3517C137.994 85.1241 137.733 84.9435 137.444 84.8209C137.155 84.6983 136.843 84.6364 136.529 84.6391H136.518Z" fill="#F15C24"></path></g><defs><clipPath id="clip0_35_70"><rect width="148.544" height="148.544" fill="white" transform="translate(62.228 60.7206)"></rect></clipPath></defs></svg>