<svg xmlns="http://www.w3.org/2000/svg" width="273" height="274" viewBox="0 0 273 274" fill="none"><circle cx="136.5" cy="137" r="136.5" fill="#FFECDD"></circle><g clip-path="url(#clip0_35_71)"><path d="M52.1914 117.359V110.163C52.2945 109.61 52.4305 109.058 52.4882 108.498C53.4115 99.8437 56.2763 91.8674 61.4452 84.6394C71.915 70.0032 91.1646 62.8104 109.297 66.8887C119.697 69.2393 127.846 74.912 134.495 82.6688C135.138 83.4132 135.731 84.1811 136.453 85.0194C137.219 84.0831 137.801 83.327 138.431 82.6101C149.932 69.443 164.4 63.3197 182.4 66.6184C199.754 69.7995 211.308 79.9579 217.264 95.4912C223.859 112.666 221.027 129.003 210.64 144.254C204.869 152.716 197.812 160.159 189.943 166.831C174.519 179.908 158.864 192.746 143.246 205.616C138.815 209.271 133.893 209.102 129.28 205.334C117.261 195.516 105.26 185.675 93.2792 175.81C83.2216 167.485 73.4566 158.859 65.4476 148.634C60.2333 141.974 56.0496 134.808 53.968 126.695C53.1807 123.635 52.7726 120.478 52.1914 117.359Z" fill="#F15C24"></path><path d="M133.82 99.8679C134.299 99.9965 134.783 100.113 135.263 100.257C140.142 101.66 143.122 106.334 142.42 111.48C141.777 116.213 137.435 119.926 132.532 119.938C130.107 119.941 127.762 119.071 125.927 117.486C124.092 115.902 122.89 113.71 122.543 111.313C122.188 108.736 122.844 106.121 124.374 104.016C125.904 101.91 128.19 100.477 130.754 100.016C130.932 99.9748 131.108 99.9241 131.28 99.864L133.82 99.8679ZM135.52 118.157L131.873 108.469C131.253 108.383 130.59 108.274 129.923 108.204C129.729 108.178 129.533 108.225 129.373 108.337C127.505 110.179 126.081 112.279 125.652 114.932C125.617 115.181 125.674 115.434 125.812 115.645C127.91 118.422 132.501 119.544 135.52 118.157ZM132.809 104.328C133.589 105.754 133.621 105.688 134.9 106.186C136.546 106.833 138.157 107.569 139.748 108.333C140.291 108.654 140.801 109.026 141.274 109.443C141.305 106.424 138.894 102.86 136.203 101.909C136.072 101.882 135.937 101.884 135.807 101.914C135.677 101.944 135.555 102.002 135.45 102.084C134.549 102.797 133.703 103.557 132.809 104.328ZM129.689 101.531C127.496 102.27 125.677 103.832 124.618 105.886H128.129C128.776 105.127 129.275 104.55 129.759 103.962C129.864 103.858 129.929 103.72 129.942 103.573C129.911 102.918 129.81 102.275 129.705 101.547L129.689 101.531Z" fill="#F89B12"></path><path d="M158.405 160.907L156 161.589C156.698 165.918 158.35 170.05 160.841 173.704C161.276 174.335 161.534 175.066 161.589 175.824C161.632 176.91 160.783 177.751 159.707 178.042C159.18 178.203 158.612 178.185 158.097 177.991C157.582 177.797 157.151 177.438 156.873 176.975C155.559 174.779 154.164 172.598 153.154 170.262C152.211 168.078 151.72 165.719 151.034 163.41C150.968 163.19 150.917 162.967 150.866 162.766C150.78 162.732 150.734 162.694 150.687 162.698C148.602 162.876 148.578 162.88 148.114 160.866C147.452 157.984 147.573 155.077 147.939 152.158C148.422 148.289 149.264 144.499 150.878 140.902C150.895 140.853 150.902 140.802 150.897 140.751C149.766 140.24 148.664 139.67 147.596 139.043C144.7 137.15 143.308 134.367 142.759 131.112C142.401 128.684 142.45 126.217 142.903 123.805C143.113 122.54 144.018 121.813 145.195 121.965C146.372 122.116 146.992 123.1 146.887 124.357C146.71 125.992 146.62 127.635 146.618 129.279C146.655 130.36 146.869 131.429 147.253 132.444C148.286 135.269 150.453 136.855 153.49 137.086C156.057 137.226 158.591 137.719 161.016 138.551C161.265 138.641 161.533 138.671 161.796 138.638C163.829 138.387 165.772 137.673 167.467 136.556C168.361 135.951 169.107 135.163 169.653 134.247C170.198 133.331 170.53 132.31 170.625 131.255C170.823 129.631 172.472 128.832 173.766 129.715C174.086 129.927 174.335 130.225 174.485 130.573C174.634 130.92 174.677 131.302 174.608 131.672C174.351 134.531 172.952 137.178 170.71 139.047C169.006 140.454 166.991 141.461 164.821 141.989C164.224 142.144 164.014 142.367 164.068 142.977C164.485 147.868 165.183 152.695 167.311 157.22C167.351 157.344 167.381 157.47 167.401 157.598L163.433 159.336C163.842 160.416 164.548 161.366 165.476 162.082C166.403 162.798 167.516 163.252 168.691 163.395C169.505 163.499 170.326 163.552 171.147 163.554C171.816 163.538 172.466 163.773 172.963 164.21C173.459 164.647 173.763 165.252 173.813 165.901C173.847 166.237 173.809 166.576 173.703 166.897C173.597 167.219 173.424 167.516 173.195 167.77C172.966 168.024 172.686 168.229 172.372 168.374C172.058 168.519 171.716 168.6 171.369 168.612C166.302 168.835 161.266 167.029 158.756 161.627L158.405 160.907Z" fill="#1EB574"></path><path d="M118.118 161.485C117.253 161.654 117.066 162.142 117.022 162.865C116.974 163.882 116.815 164.892 116.548 165.877C115.352 170.107 111.733 172.292 107.248 171.611C105.188 171.279 103.196 170.63 101.349 169.688C100.585 169.322 100.002 168.68 99.7276 167.901C99.4527 167.122 99.5085 166.27 99.8826 165.53C100.251 164.793 100.898 164.219 101.692 163.928C102.486 163.638 103.365 163.652 104.147 163.969C105.42 164.479 106.72 164.922 108.042 165.296C109.489 165.661 110.035 165.257 110.314 163.827C110.626 162.468 110.562 161.054 110.126 159.727C108.471 154.93 107.604 149.914 107.555 144.858C107.574 144.643 107.524 144.427 107.41 144.24C107.297 144.053 107.126 143.905 106.922 143.816C100.421 140.186 97.3077 133.617 98.6788 126.478C98.7506 126.117 98.7984 125.752 98.9061 125.402C99.0362 124.929 99.3456 124.521 99.7731 124.258C100.201 123.995 100.715 123.897 101.214 123.982C101.73 124.062 102.193 124.334 102.503 124.74C102.813 125.145 102.945 125.652 102.872 126.152C102.605 127.971 102.354 129.778 102.641 131.621C103.31 135.851 105.766 138.863 109.688 140.705C110.716 141.185 112.008 141.162 113.179 141.351C114.487 141.559 115.798 141.805 117.117 141.912C117.831 141.991 118.554 141.906 119.226 141.662C124.085 139.647 126.827 135.947 128.047 131.09C128.182 130.555 128.274 130.013 128.382 129.474C128.633 128.209 129.577 127.505 130.797 127.69C131.067 127.732 131.325 127.828 131.555 127.969C131.785 128.111 131.983 128.297 132.137 128.515C132.291 128.733 132.397 128.979 132.449 129.238C132.501 129.497 132.497 129.763 132.439 130.021C131.287 136.882 127.855 142.193 121.139 145.193C120.878 145.267 120.655 145.432 120.512 145.656C120.37 145.88 120.317 146.146 120.366 146.404C120.534 149.806 121.233 153.164 122.439 156.366C122.537 156.634 122.686 156.883 122.877 157.1C127.054 161.673 128.354 167.1 127.812 173.011C127.634 174.675 127.326 176.323 126.891 177.941C126.705 178.593 126.298 179.166 125.735 179.567C125.172 179.969 124.486 180.177 123.786 180.157C123.087 180.163 122.406 179.945 121.85 179.537C121.294 179.129 120.894 178.554 120.713 177.903C120.564 177.27 120.564 176.613 120.713 175.98C121.454 172.719 121.761 169.469 120.78 166.204C120.273 164.457 119.363 162.844 118.118 161.485Z" fill="#1D3677"></path><path d="M108.398 132.954C108.4 132.03 108.585 131.115 108.943 130.263C109.3 129.41 109.823 128.637 110.481 127.987C111.138 127.337 111.918 126.823 112.775 126.475C113.632 126.127 114.549 125.952 115.474 125.96C117.324 125.984 119.09 126.732 120.394 128.044C121.698 129.355 122.436 131.125 122.449 132.974C122.44 134.839 121.694 136.624 120.374 137.942C119.053 139.26 117.266 140.004 115.4 140.011C114.476 140.009 113.562 139.825 112.709 139.469C111.857 139.113 111.083 138.592 110.432 137.936C109.782 137.28 109.267 136.503 108.918 135.648C108.569 134.793 108.392 133.878 108.398 132.954Z" fill="#1D3677"></path><path d="M162.596 129.971C162.6 130.762 162.446 131.547 162.145 132.279C161.843 133.012 161.399 133.677 160.839 134.237C160.278 134.798 159.612 135.241 158.879 135.543C158.146 135.845 157.36 135.999 156.566 135.996C155.775 135.997 154.991 135.842 154.259 135.539C153.528 135.237 152.864 134.793 152.305 134.233C151.746 133.674 151.303 133.009 151.002 132.278C150.702 131.548 150.548 130.764 150.552 129.974C150.547 129.183 150.7 128.398 151.002 127.665C151.303 126.933 151.747 126.268 152.308 125.708C152.869 125.148 153.535 124.704 154.268 124.403C155.002 124.101 155.788 123.948 156.581 123.952C157.373 123.949 158.158 124.103 158.89 124.405C159.622 124.706 160.287 125.15 160.846 125.709C161.405 126.269 161.848 126.934 162.148 127.665C162.448 128.397 162.601 129.18 162.596 129.971Z" fill="#1EB574"></path></g><defs><clipPath id="clip0_35_71"><rect width="168.618" height="148.544" fill="white" transform="translate(52.1914 60.7206)"></rect></clipPath></defs></svg>