<svg xmlns="http://www.w3.org/2000/svg" width="273" height="274" viewBox="0 0 273 274" fill="none"><circle cx="136.5" cy="137" r="136.5" fill="#FFECDD"></circle><g clip-path="url(#clip0_35_72)"><path d="M178.696 135.024C178.786 137.028 178.897 138.822 178.942 140.615C179.251 153.344 177.412 165.796 173.959 178.013C172.661 182.458 172.072 187.082 172.214 191.713C172.379 196.503 172.255 201.305 172.247 206.099C172.247 208.43 171.424 209.281 169.099 209.281H116.251C113.93 209.281 113.095 208.455 113.086 206.116C113.086 203.028 113.086 199.916 113.086 196.672C110.304 196.342 107.576 196.011 104.856 195.705C101.033 195.292 97.2056 194.879 93.3826 194.432C91.646 194.234 90.9135 193.316 90.9135 191.341C90.9135 180.509 90.8929 169.681 90.9135 158.853C90.9428 158.376 90.8559 157.898 90.6601 157.461C90.4644 157.025 90.1657 156.643 89.79 156.349C87.2632 154.158 84.7983 151.902 82.3127 149.662C80.7571 148.257 80.6213 147.207 81.8229 145.504C84.7324 141.372 87.5143 137.16 90.6378 133.209C92.8247 130.539 94.0948 127.232 94.2591 123.778C94.2707 123.521 94.2969 123.264 94.3374 123.01C94.6666 120.852 95.432 120.175 97.6295 120.175H138.066C138.354 118.522 138.626 116.98 138.922 115.31C136.588 114.025 134.235 112.686 131.831 111.45C131.58 111.372 131.315 111.345 131.053 111.371C130.791 111.396 130.537 111.474 130.305 111.599C128.432 112.562 126.601 113.595 124.77 114.641C123.712 115.244 122.675 115.517 121.617 114.711C120.638 113.963 120.498 112.963 120.745 111.818C121.156 109.806 121.481 107.764 121.922 105.751C122.049 105.365 122.052 104.95 121.933 104.562C121.813 104.173 121.577 103.832 121.255 103.586C119.642 102.229 118.115 100.771 116.683 99.2215C116.052 98.467 115.716 97.5079 115.737 96.5228C115.815 95.3326 116.897 94.8077 118.078 94.6837C118.835 94.6052 119.584 94.473 120.49 94.3448C120.49 90.7411 120.523 87.1952 120.432 83.6534C120.432 83.3186 119.671 82.864 119.198 82.7028C117.473 82.1489 115.962 81.0716 114.873 79.6195C113.784 78.1673 113.17 76.4116 113.115 74.5944C113.049 70.8377 115.272 67.3413 118.877 66.3288C120.782 65.7851 122.515 64.7574 123.909 63.3449C128.095 59.3734 134.609 60.1048 138.21 64.6509C138.619 65.1888 139.2 65.5683 139.856 65.7254C143.881 66.3536 146.757 69.0027 147.51 72.933C148.202 76.5202 146.366 80.1984 142.934 82.1036L142.181 82.5169V94.3407C143.103 94.4812 143.963 94.5721 144.807 94.754C146.967 95.221 147.65 97.3783 146.095 98.9777C144.626 100.486 143.091 101.949 141.49 103.313C140.58 104.086 140.292 104.867 140.609 105.991C140.872 106.925 141.021 107.892 141.268 109.091C141.942 108.02 142.469 107.099 143.078 106.235C149.432 97.2047 158.107 92.8116 169.132 93.2125C170.169 93.2538 170.757 93.0471 171.313 92.0883C174.194 87.0918 178.403 83.6162 183.741 81.4837C184.328 81.2507 184.82 80.8255 185.136 80.2769C186.749 76.9294 189.901 75.1068 193.222 75.706C194.83 75.9854 196.303 76.7845 197.418 77.9818C198.532 79.1791 199.226 80.7091 199.395 82.3392C199.529 83.9731 199.125 85.6061 198.243 86.9862C197.362 88.3663 196.053 89.4171 194.519 89.9765C191.202 91.2163 187.823 90.022 185.667 86.8811C185.552 86.7116 185.432 86.5504 185.231 86.2653C181.202 87.7861 178.148 90.4228 175.724 94.1795L177.395 94.8036C184.027 97.2021 189.594 101.889 193.103 108.028C193.761 109.153 194.724 110.095 195.494 111.161C196.515 112.57 197.263 114.265 198.535 115.372C199.807 116.48 201.617 116.695 202.955 117.65C204.56 118.835 205.748 120.503 206.344 122.413C206.941 124.322 206.915 126.373 206.272 128.267C205.674 130.176 204.494 131.849 202.898 133.049C201.302 134.249 199.372 134.915 197.379 134.953C191.782 135.024 186.185 134.978 180.589 134.978L178.696 135.024ZM167.317 204.26V202.528C167.317 196.961 167.317 191.391 167.317 185.824C167.323 184.797 167.443 183.774 167.675 182.774C168.387 179.769 169.165 176.781 169.955 173.797C173.302 161.386 174.582 148.504 173.741 135.673C173.708 135.181 173.49 134.433 173.14 134.28C169.358 132.437 167.498 129.358 167.226 125.188H99.0534C98.8645 126.005 98.727 126.833 98.6419 127.667C98.5472 129.973 97.6501 131.883 96.2756 133.718C93.3497 137.636 90.5843 141.669 87.753 145.657C87.4361 146.1 87.148 146.562 86.8147 147.062C89.2303 149.236 91.5143 151.385 93.9135 153.402C95.2838 154.555 95.9423 155.824 95.8394 157.667C95.6954 160.172 95.8024 162.688 95.8024 165.35C97.4279 165.35 98.9011 165.321 100.378 165.35C102.557 165.424 104.681 164.653 106.309 163.197C107.741 161.957 109.082 161.957 110.099 163.077C111.115 164.197 110.893 165.693 109.461 166.974C107.2 169.049 104.264 170.225 101.202 170.28C99.4279 170.33 97.6501 170.28 95.8888 170.28V189.68C96.1604 189.721 96.3538 189.762 96.5514 189.783C102.823 190.494 109.095 191.206 115.366 191.92C117.222 192.134 117.955 192.982 117.988 194.874C117.988 195.647 117.988 196.42 117.988 197.193V204.243L167.317 204.26ZM187.07 130.073C190.301 130.073 193.531 130.073 196.761 130.073C199.593 130.052 201.7 128.134 201.803 125.527C201.906 122.919 199.951 120.782 197.111 120.621C195.387 120.522 194.568 119.716 194.111 118.141C193.685 116.585 192.758 115.214 191.475 114.242C190.191 113.27 188.624 112.752 187.017 112.769C185.413 112.762 183.853 113.288 182.578 114.264C181.303 115.24 180.385 116.612 179.967 118.166C179.502 119.778 178.634 120.526 176.926 120.625C174.103 120.79 172.14 122.993 172.288 125.584C172.436 128.176 174.523 130.081 177.375 130.097C180.601 130.064 183.831 130.064 187.066 130.064L187.07 130.073ZM186.749 107.574C180.988 99.424 169.465 95.969 159.56 99.3868C150.477 102.519 142.955 112.091 143.309 120.092H147.778C148.214 118.563 148.523 117.096 149.041 115.703C153.955 102.577 170.383 98.614 180.77 108.008C181.181 108.388 181.897 108.764 182.416 108.681C183.84 108.425 185.247 107.954 186.745 107.553L186.749 107.574ZM130.333 78.0948C133 78.0948 135.683 78.0948 138.337 78.0948C140.992 78.0948 142.687 76.5946 142.658 74.3422C142.63 72.0899 140.959 70.6227 138.412 70.7013C136.588 70.7674 135.428 70.1806 134.675 68.4407C133.893 66.6346 132.313 65.7543 130.358 65.7461C128.403 65.7378 126.798 66.614 126.025 68.42C125.251 70.226 124 70.7633 122.148 70.7013C119.716 70.6227 118.066 72.1684 118.033 74.3216C118 76.4747 119.679 78.0741 122.181 78.0948C124.893 78.0865 127.613 78.0741 130.329 78.0741L130.333 78.0948ZM177.72 111.922C173.395 108.074 168.453 106.747 162.93 108.553C157.407 110.359 154.156 114.339 152.889 120.125H157.91C158.095 119.637 158.243 119.203 158.424 118.778C159.028 117.366 159.952 116.116 161.121 115.125C162.29 114.134 163.673 113.43 165.16 113.069C166.647 112.708 168.198 112.7 169.689 113.045C171.179 113.391 172.57 114.08 173.749 115.058C175.198 116.253 175.177 116.24 176.111 114.533C176.576 113.632 177.132 112.831 177.716 111.901L177.72 111.922ZM138.757 98.9653C134.477 99.3786 132.325 97.2378 131.128 93.4439C130.267 97.6593 127.65 99.1761 123.588 99.0479C127.292 101.168 127.897 104.156 126.601 107.966C129.815 105.202 132.774 105.404 135.942 107.966C134.395 104.119 135.255 101.214 138.753 98.9446L138.757 98.9653ZM125.51 83.1037V93.2827C126.802 91.0924 127.761 88.7821 128.984 86.6166C129.395 85.9016 130.457 85.1701 131.226 85.1701C131.996 85.1701 133.029 85.914 133.457 86.629C134.481 88.3358 135.214 90.2245 136.074 92.0346C136.317 92.5429 136.597 93.0389 137.033 93.882V83.0831L125.51 83.1037ZM194.428 82.9839C194.409 82.3392 194.14 81.7274 193.679 81.2784C193.218 80.8293 192.601 80.5783 191.959 80.5786C191.627 80.5832 191.3 80.6549 190.996 80.7894C190.693 80.9239 190.419 81.1185 190.192 81.3615C189.965 81.6045 189.789 81.891 189.675 82.2039C189.561 82.5167 189.51 82.8494 189.527 83.1822C189.566 83.8268 189.854 84.4306 190.33 84.8651C190.806 85.2996 191.432 85.5306 192.074 85.509C192.722 85.4779 193.331 85.1921 193.771 84.7135C194.211 84.2348 194.445 83.6017 194.424 82.9508L194.428 82.9839ZM170.021 118.472C167.3 117.042 164.514 117.769 163.436 120.332C165.659 119.518 168.379 121.518 170.017 118.451L170.021 118.472Z" fill="#1D3677"></path><path d="M160.589 76.1482C158.631 78.6005 157.529 81.6309 157.453 84.7733C157.42 85.4717 157.408 86.4471 156.98 86.7901C156.272 87.3645 155.206 87.8729 154.346 87.7902C153.111 87.6745 152.535 86.5793 152.535 85.2899C152.5 80.7146 154.057 76.2707 156.939 72.7263C157.368 72.1466 157.573 71.4297 157.515 70.7095C157.253 68.7783 157.637 66.8146 158.605 65.1255C159.572 63.4363 161.071 62.1169 162.864 61.3735C164.664 60.6426 166.657 60.5433 168.519 61.0916C170.382 61.6399 172.006 62.8037 173.128 64.3946C174.262 66.0072 174.815 67.9601 174.696 69.931C174.576 71.9018 173.791 73.7727 172.469 75.2349C171.165 76.6788 169.411 77.6364 167.495 77.9516C165.579 78.2668 163.613 77.9211 161.918 76.9706C161.511 76.7516 161.128 76.4871 160.589 76.1482ZM169.778 69.3498C169.768 68.8613 169.662 68.3796 169.466 67.9323C169.271 67.4849 168.989 67.0806 168.638 66.7425C168.287 66.4043 167.873 66.139 167.42 65.9617C166.966 65.7843 166.483 65.6984 165.996 65.7088C165.014 65.7444 164.086 66.1677 163.414 66.8866C162.741 67.6055 162.378 68.562 162.404 69.5482C162.444 70.5072 162.852 71.4134 163.542 72.0773C164.232 72.7412 165.152 73.1115 166.107 73.1106C166.594 73.1058 167.075 73.0046 167.523 72.8129C167.971 72.6212 168.376 72.3428 168.717 71.9935C169.057 71.6442 169.326 71.2309 169.507 70.7773C169.689 70.3237 169.779 69.8386 169.774 69.3498H169.778Z" fill="#F15C24"></path><path d="M93.1646 108.789C92.9589 109.256 92.7819 109.677 92.5926 110.091C90.9465 113.703 87.0082 115.806 83.2634 115.071C81.3272 114.73 79.5643 113.738 78.2656 112.256C76.9668 110.775 76.2097 108.893 76.1193 106.921C76.0413 104.976 76.6148 103.062 77.748 101.483C78.8812 99.9046 80.5088 98.7532 82.3704 98.213C84.2556 97.6657 86.2712 97.7893 88.0761 98.5627C89.8811 99.3361 91.3646 100.712 92.2757 102.457C92.4555 102.864 92.7367 103.217 93.0921 103.483C93.4475 103.749 93.8651 103.918 94.3046 103.974C98.532 104.791 102.286 107.205 104.794 110.719C105.979 112.318 105.922 113.707 104.683 114.657C103.445 115.608 102.074 115.306 100.889 113.723C99.039 111.145 96.274 109.379 93.1646 108.789ZM84.6749 102.833C84.1878 102.843 83.7074 102.949 83.2612 103.146C82.8149 103.342 82.4117 103.625 82.0745 103.978C81.7373 104.331 81.4728 104.748 81.2962 105.204C81.1196 105.66 81.0343 106.146 81.0453 106.636C81.087 107.618 81.5109 108.544 82.2259 109.216C82.9408 109.888 83.8896 110.251 84.8683 110.227C85.8212 110.18 86.72 109.769 87.3799 109.077C88.0398 108.385 88.4105 107.466 88.4157 106.507C88.4037 105.522 88.0031 104.582 87.3018 103.894C86.6005 103.205 85.6558 102.824 84.6749 102.833Z" fill="#1EB574"></path><path d="M103.77 92.3238C100.811 93.4025 98.1319 93.0595 95.8068 90.9848C94.4894 89.8086 93.6392 88.1944 93.4124 86.4389C93.1856 84.6834 93.5974 82.9047 94.5722 81.4299C95.5242 79.9731 96.957 78.9 98.6188 78.3989C100.281 77.8978 102.065 78.0008 103.659 78.6898C105.286 79.3655 106.611 80.6166 107.382 82.2067C108.153 83.7968 108.318 85.6156 107.844 87.319C107.473 88.5589 107.749 89.3854 108.432 90.3856C111.349 94.6015 112.96 99.5894 113.062 104.722C113.111 106.553 112.198 107.689 110.724 107.764C109.251 107.838 108.206 106.71 108.136 104.801C108.01 100.286 106.484 95.9245 103.77 92.3238ZM103.21 85.48C103.202 84.8352 102.943 84.219 102.49 83.7623C102.037 83.3055 101.424 83.0441 100.782 83.0334C100.451 83.0332 100.124 83.0998 99.8188 83.2293C99.514 83.3588 99.2382 83.5485 99.0079 83.7872C98.7776 84.0258 98.5974 84.3085 98.478 84.6185C98.3586 84.9285 98.3025 85.2594 98.313 85.5916C98.3408 86.2369 98.6182 86.8458 99.0862 87.2889C99.5543 87.7319 100.176 87.974 100.819 87.9638C101.461 87.9433 102.07 87.6725 102.516 87.2088C102.963 86.7451 103.211 86.1249 103.21 85.48Z" fill="#F89B12"></path><path d="M76.1645 83.9963C77.0328 84.0748 77.9012 84.1203 78.7654 84.2401C80.2098 84.4385 81.1275 85.5295 81.0205 86.8603C80.9135 88.1249 79.8682 89.2449 78.5514 89.1126C75.4304 88.8299 72.2861 89.2536 69.3497 90.3525C68.1151 90.7988 66.8435 90.0136 66.4032 88.7779C66.2854 88.4753 66.232 88.1513 66.2465 87.8267C66.2609 87.5022 66.3429 87.1843 66.4871 86.8934C66.6313 86.6026 66.8345 86.3454 67.0838 86.1382C67.333 85.9311 67.6226 85.7786 67.934 85.6907C70.6213 84.9138 73.3662 84.3476 76.0905 83.6946L76.1645 83.9963Z" fill="#F15C24"></path><path d="M93.4693 93.3075C93.0824 93.7951 92.6874 94.7002 92.0207 95.006C91.637 95.1654 91.224 95.2412 90.809 95.2284C90.394 95.2155 89.9865 95.1144 89.6133 94.9317C88.3889 94.1009 87.2647 93.1301 86.2635 92.0387C85.4651 91.2122 85.2841 90.0343 86.0619 89.2408C86.6791 88.6044 88.1195 87.8646 88.5845 88.1539C90.2553 89.2367 91.6792 90.7162 93.1606 92.0842C93.3458 92.2412 93.317 92.6462 93.4693 93.3075Z" fill="#F15C24"></path><path d="M113.601 147.422C108.506 147.116 104.757 144.827 102.411 140.334C101.518 138.632 101.864 137.189 103.234 136.483C104.605 135.776 105.794 136.33 106.732 137.995C108.79 141.62 112.111 143.161 115.716 142.128C117.967 141.475 119.502 139.983 120.564 137.917C121.341 136.4 122.547 135.896 123.823 136.408C125.214 136.966 125.765 138.499 125.016 140.016C122.687 144.777 118.798 147.182 113.601 147.422Z" fill="#1EB574"></path></g><defs><clipPath id="clip0_35_72"><rect width="140.515" height="148.544" fill="white" transform="translate(66.2427 60.7206)"></rect></clipPath></defs></svg>