<?xml version="1.0" encoding="UTF-8"?>
<svg xmlns="http://www.w3.org/2000/svg" xmlns:xlink="http://www.w3.org/1999/xlink" width="343px" height="141px" viewBox="0 0 342 141" version="1.1">
  <g id="surface1">
    <path style=" stroke:none;fill-rule:nonzero;fill:rgb(6.27451%,9.411765%,12.54902%);fill-opacity:1;" d="M 66.230469 86.507812 L 66.230469 30.414062 L 42.421875 67.085938 L 41.9375 67.085938 L 18.371094 30.800781 L 18.371094 86.507812 L 0 86.507812 L 0 0.609375 L 20.066406 0.609375 L 42.296875 36.894531 L 64.539062 0.609375 L 84.605469 0.609375 L 84.605469 86.507812 Z M 66.230469 86.507812 "></path>
    <path style=" stroke:none;fill-rule:nonzero;fill:rgb(6.27451%,9.411765%,12.54902%);fill-opacity:1;" d="M 161.824219 86.507812 L 154.085938 67.296875 L 118.328125 67.296875 L 110.589844 86.507812 L 91.660156 86.507812 L 127.917969 0.0625 L 145.070312 0.0625 L 181.332031 86.507812 Z M 136.195312 22.6875 L 124.964844 50.523438 L 147.4375 50.523438 Z M 136.195312 22.6875 "></path>
    <path style=" stroke:none;fill-rule:nonzero;fill:rgb(6.27451%,9.411765%,12.54902%);fill-opacity:1;" d="M 247.628906 86.507812 L 206.613281 31.941406 L 206.613281 86.507812 L 188.28125 86.507812 L 188.28125 0.609375 L 205.445312 0.609375 L 245.082031 53.425781 L 245.082031 0.609375 L 263.453125 0.609375 L 263.453125 86.507812 Z M 247.628906 86.507812 "></path>
    <path style=" stroke:none;fill-rule:nonzero;fill:rgb(6.27451%,9.411765%,12.54902%);fill-opacity:1;" d="M 277.714844 86.507812 L 277.714844 0.609375 L 341.371094 0.609375 L 341.371094 17.417969 L 296.085938 17.417969 L 296.085938 34.832031 L 335.960938 34.832031 L 335.960938 51.632812 L 296.085938 51.632812 L 296.085938 69.65625 L 342.007812 69.65625 L 342.007812 86.507812 Z M 277.714844 86.507812 "></path>
    <path style=" stroke:none;fill-rule:nonzero;fill:rgb(6.27451%,9.411765%,12.54902%);fill-opacity:1;" d="M 2.746094 105.164062 L 2.746094 120.734375 L 23.777344 120.734375 L 23.777344 123.273438 L 2.746094 123.273438 L 2.746094 140.347656 L 0 140.347656 L 0 102.632812 L 26.1875 102.632812 L 26.1875 105.164062 Z M 2.746094 105.164062 "></path>
    <path style=" stroke:none;fill-rule:nonzero;fill:rgb(6.27451%,9.411765%,12.54902%);fill-opacity:1;" d="M 65.84375 128.898438 C 64.972656 131.199219 63.683594 133.3125 62.046875 135.128906 C 60.378906 136.945312 58.363281 138.398438 56.125 139.398438 C 53.707031 140.476562 51.089844 141.019531 48.449219 140.988281 C 44.695312 141.042969 41.019531 139.917969 37.917969 137.769531 C 34.820312 135.621094 32.453125 132.550781 31.140625 128.984375 C 30.253906 126.625 29.804688 124.121094 29.8125 121.597656 L 29.8125 121.492188 C 29.800781 118.957031 30.257812 116.445312 31.160156 114.085938 C 32.027344 111.785156 33.316406 109.671875 34.957031 107.851562 C 36.617188 106.039062 38.625 104.585938 40.855469 103.582031 C 43.28125 102.535156 45.890625 101.992188 48.527344 101.992188 C 51.164062 101.992188 53.773438 102.535156 56.199219 103.582031 C 58.429688 104.589844 60.433594 106.042969 62.097656 107.851562 C 63.734375 109.640625 65.011719 111.738281 65.863281 114.019531 C 66.753906 116.378906 67.207031 118.882812 67.199219 121.40625 C 67.207031 121.414062 67.210938 121.421875 67.214844 121.429688 C 67.21875 121.441406 67.222656 121.449219 67.222656 121.460938 C 67.222656 121.46875 67.21875 121.480469 67.214844 121.488281 C 67.210938 121.496094 67.207031 121.503906 67.199219 121.511719 C 67.207031 124.039062 66.746094 126.542969 65.84375 128.898438 Z M 64.328125 121.492188 C 64.34375 119.230469 63.9375 116.992188 63.128906 114.886719 C 62.371094 112.914062 61.253906 111.101562 59.835938 109.550781 C 58.421875 108.011719 56.714844 106.777344 54.820312 105.921875 C 52.820312 105.003906 50.644531 104.539062 48.449219 104.566406 C 46.324219 104.542969 44.21875 104.96875 42.269531 105.816406 C 40.316406 106.667969 38.558594 107.917969 37.113281 109.496094 C 35.699219 111.046875 34.585938 112.859375 33.839844 114.832031 C 33.054688 116.929688 32.660156 119.160156 32.675781 121.40625 L 32.675781 121.511719 C 32.660156 123.773438 33.066406 126.011719 33.871094 128.117188 C 34.632812 130.089844 35.75 131.902344 37.164062 133.453125 C 38.582031 134.992188 40.285156 136.226562 42.179688 137.082031 C 44.183594 138 46.359375 138.464844 48.554688 138.4375 C 50.675781 138.464844 52.785156 138.039062 54.734375 137.191406 C 56.6875 136.339844 58.445312 135.085938 59.890625 133.507812 C 61.304688 131.957031 62.417969 130.148438 63.160156 128.171875 C 63.949219 126.074219 64.34375 123.84375 64.328125 121.597656 Z M 64.328125 121.492188 "></path>
    <path style=" stroke:none;fill-rule:nonzero;fill:rgb(6.27451%,9.411765%,12.54902%);fill-opacity:1;" d="M 103.132812 131.492188 C 102.460938 133.433594 101.386719 135.207031 99.976562 136.6875 C 98.628906 138.101562 96.988281 139.195312 95.171875 139.890625 C 93.191406 140.625 91.097656 140.988281 88.988281 140.957031 C 86.898438 140.972656 84.824219 140.613281 82.859375 139.890625 C 81.042969 139.210938 79.390625 138.144531 78.019531 136.761719 C 76.617188 135.3125 75.542969 133.574219 74.867188 131.660156 C 74.082031 129.414062 73.703125 127.042969 73.75 124.660156 L 73.75 102.632812 L 76.507812 102.632812 L 76.507812 124.40625 C 76.507812 128.902344 77.613281 132.359375 79.828125 134.777344 C 82.042969 137.195312 85.132812 138.410156 89.09375 138.417969 C 90.832031 138.441406 92.558594 138.148438 94.195312 137.554688 C 95.675781 137.003906 97.007812 136.117188 98.097656 134.960938 C 99.226562 133.738281 100.078125 132.28125 100.589844 130.691406 C 101.210938 128.761719 101.507812 126.742188 101.472656 124.714844 L 101.472656 102.632812 L 104.226562 102.632812 L 104.226562 124.351562 C 104.277344 126.777344 103.90625 129.195312 103.132812 131.492188 Z M 103.132812 131.492188 "></path>
    <path style=" stroke:none;fill-rule:nonzero;fill:rgb(6.27451%,9.411765%,12.54902%);fill-opacity:1;" d="M 141.265625 140.347656 L 115.089844 106.785156 L 115.089844 140.304688 L 112.429688 140.304688 L 112.429688 102.632812 L 115.039062 102.632812 L 140.6875 135.449219 L 140.6875 102.632812 L 143.335938 102.632812 L 143.335938 140.347656 Z M 141.265625 140.347656 "></path>
    <path style=" stroke:none;fill-rule:nonzero;fill:rgb(6.27451%,9.411765%,12.54902%);fill-opacity:1;" d="M 182.792969 128.929688 C 181.863281 131.183594 180.480469 133.21875 178.734375 134.90625 C 176.90625 136.640625 174.765625 137.996094 172.425781 138.898438 C 169.875 139.890625 167.164062 140.382812 164.433594 140.347656 L 152.074219 140.347656 L 152.074219 102.632812 L 164.453125 102.632812 C 167.179688 102.601562 169.890625 103.082031 172.445312 104.054688 C 174.785156 104.941406 176.929688 106.292969 178.753906 108.023438 C 180.5 109.703125 181.878906 111.730469 182.816406 113.976562 C 183.78125 116.324219 184.269531 118.84375 184.246094 121.382812 L 184.246094 121.492188 C 184.261719 124.042969 183.765625 126.574219 182.792969 128.929688 Z M 181.363281 121.460938 C 181.375 119.289062 180.96875 117.140625 180.164062 115.132812 C 179.386719 113.207031 178.238281 111.457031 176.789062 109.988281 C 175.269531 108.460938 173.464844 107.265625 171.476562 106.464844 C 169.25 105.574219 166.871094 105.136719 164.472656 105.171875 L 154.863281 105.171875 L 154.863281 137.832031 L 164.472656 137.832031 C 166.867188 137.863281 169.246094 137.433594 171.476562 136.558594 C 173.460938 135.789062 175.269531 134.609375 176.789062 133.101562 C 178.242188 131.640625 179.390625 129.894531 180.164062 127.96875 C 180.976562 125.9375 181.386719 123.761719 181.363281 121.566406 Z M 181.363281 121.460938 "></path>
    <path style=" stroke:none;fill-rule:nonzero;fill:rgb(6.27451%,9.411765%,12.54902%);fill-opacity:1;" d="M 220.023438 140.347656 L 215.300781 129.792969 L 193.363281 129.792969 L 188.640625 140.347656 L 185.730469 140.347656 L 203.039062 102.355469 L 205.710938 102.355469 L 223.019531 140.347656 Z M 204.351562 105.429688 L 194.53125 127.253906 L 214.121094 127.253906 Z M 204.351562 105.429688 "></path>
    <path style=" stroke:none;fill-rule:nonzero;fill:rgb(6.27451%,9.411765%,12.54902%);fill-opacity:1;" d="M 236.910156 105.164062 L 236.910156 140.382812 L 234.101562 140.382812 L 234.101562 105.164062 L 221.1875 105.164062 L 221.1875 102.632812 L 249.878906 102.632812 L 249.878906 105.164062 Z M 236.910156 105.164062 "></path>
    <path style=" stroke:none;fill-rule:nonzero;fill:rgb(6.27451%,9.411765%,12.54902%);fill-opacity:1;" d="M 256.34375 140.347656 L 256.34375 102.632812 L 259.109375 102.632812 L 259.109375 140.347656 Z M 256.34375 140.347656 "></path>
    <path style=" stroke:none;fill-rule:nonzero;fill:rgb(6.27451%,9.411765%,12.54902%);fill-opacity:1;" d="M 302.625 128.898438 C 301.757812 131.199219 300.46875 133.3125 298.832031 135.128906 C 297.160156 136.945312 295.148438 138.398438 292.910156 139.398438 C 290.492188 140.476562 287.875 141.019531 285.234375 140.988281 C 282.589844 141.027344 279.972656 140.484375 277.554688 139.398438 C 275.339844 138.390625 273.347656 136.9375 271.699219 135.128906 C 270.058594 133.34375 268.777344 131.246094 267.921875 128.960938 C 267.035156 126.605469 266.585938 124.101562 266.597656 121.578125 L 266.597656 121.46875 C 266.589844 118.9375 267.046875 116.425781 267.945312 114.0625 C 268.816406 111.765625 270.105469 109.652344 271.738281 107.832031 C 273.402344 106.019531 275.410156 104.566406 277.640625 103.5625 C 280.070312 102.515625 282.679688 101.976562 285.320312 101.980469 C 287.957031 101.984375 290.570312 102.53125 292.996094 103.582031 C 295.222656 104.589844 297.230469 106.042969 298.894531 107.851562 C 300.527344 109.644531 301.808594 111.738281 302.667969 114.019531 C 303.554688 116.378906 304.007812 118.882812 303.996094 121.40625 C 304 121.414062 304.007812 121.421875 304.011719 121.429688 C 304.015625 121.441406 304.015625 121.449219 304.015625 121.460938 C 304.015625 121.46875 304.015625 121.480469 304.011719 121.488281 C 304.007812 121.496094 304 121.503906 303.996094 121.511719 C 303.996094 124.039062 303.535156 126.542969 302.625 128.898438 Z M 301.113281 121.492188 C 301.125 119.234375 300.722656 116.992188 299.925781 114.886719 C 299.15625 112.914062 298.039062 111.105469 296.621094 109.550781 C 295.203125 108.011719 293.5 106.777344 291.605469 105.921875 C 289.605469 105.003906 287.429688 104.539062 285.234375 104.566406 C 283.109375 104.542969 281.003906 104.96875 279.050781 105.816406 C 277.101562 106.667969 275.34375 107.917969 273.894531 109.496094 C 272.480469 111.046875 271.375 112.855469 270.636719 114.832031 C 269.839844 116.929688 269.441406 119.160156 269.457031 121.40625 L 269.457031 121.511719 C 269.445312 123.773438 269.851562 126.011719 270.65625 128.117188 C 271.417969 130.089844 272.53125 131.902344 273.949219 133.453125 C 275.367188 134.992188 277.070312 136.226562 278.964844 137.082031 C 280.964844 138 283.140625 138.464844 285.335938 138.4375 C 287.460938 138.464844 289.566406 138.039062 291.519531 137.191406 C 293.472656 136.339844 295.226562 135.085938 296.675781 133.507812 C 298.089844 131.957031 299.203125 130.148438 299.945312 128.171875 C 300.730469 126.074219 301.128906 123.84375 301.113281 121.597656 Z M 301.113281 121.492188 "></path>
    <path style=" stroke:none;fill-rule:nonzero;fill:rgb(6.27451%,9.411765%,12.54902%);fill-opacity:1;" d="M 339.9375 140.347656 L 313.753906 106.785156 L 313.753906 140.304688 L 311.089844 140.304688 L 311.089844 102.632812 L 313.703125 102.632812 L 339.347656 135.449219 L 339.347656 102.632812 L 342.007812 102.632812 L 342.007812 140.347656 Z M 339.9375 140.347656 "></path>
  </g>
</svg>
