<?xml version="1.0" encoding="UTF-8"?>
<svg xmlns="http://www.w3.org/2000/svg" xmlns:xlink="http://www.w3.org/1999/xlink" width="58px" height="58px" viewBox="0 0 58 58" version="1.1">
  <g id="surface1">
    <path style=" stroke:none;fill-rule:nonzero;fill:rgb(6.27451%,9.411765%,12.54902%);fill-opacity:1;" d="M 11.230469 35.585938 L 11.230469 12.511719 L 7.195312 27.59375 L 7.113281 27.59375 L 3.117188 12.667969 L 3.117188 35.585938 L 0 35.585938 L 0 0.25 L 3.402344 0.25 L 7.171875 15.175781 L 10.945312 0.25 L 14.347656 0.25 L 14.347656 35.585938 Z M 11.230469 35.585938 "></path>
    <path style=" stroke:none;fill-rule:nonzero;fill:rgb(6.27451%,9.411765%,12.54902%);fill-opacity:1;" d="M 27.445312 35.585938 L 26.132812 27.683594 L 20.066406 27.683594 L 18.753906 35.585938 L 15.542969 35.585938 L 21.695312 0.0273438 L 24.601562 0.0273438 L 30.753906 35.585938 Z M 23.097656 9.332031 L 21.191406 20.78125 L 25.003906 20.78125 Z M 23.097656 9.332031 "></path>
    <path style=" stroke:none;fill-rule:nonzero;fill:rgb(6.27451%,9.411765%,12.54902%);fill-opacity:1;" d="M 41.996094 35.585938 L 35.039062 13.140625 L 35.039062 35.585938 L 31.929688 35.585938 L 31.929688 0.25 L 34.839844 0.25 L 41.5625 21.976562 L 41.5625 0.25 L 44.679688 0.25 L 44.679688 35.585938 Z M 41.996094 35.585938 "></path>
    <path style=" stroke:none;fill-rule:nonzero;fill:rgb(6.27451%,9.411765%,12.54902%);fill-opacity:1;" d="M 47.097656 35.585938 L 47.097656 0.25 L 57.894531 0.25 L 57.894531 7.164062 L 50.214844 7.164062 L 50.214844 14.328125 L 56.976562 14.328125 L 56.976562 21.238281 L 50.214844 21.238281 L 50.214844 28.652344 L 58 28.652344 L 58 35.585938 Z M 47.097656 35.585938 "></path>
    <path style=" stroke:none;fill-rule:nonzero;fill:rgb(6.27451%,9.411765%,12.54902%);fill-opacity:1;" d="M 0.464844 43.257812 L 0.464844 49.664062 L 4.03125 49.664062 L 4.03125 50.707031 L 0.464844 50.707031 L 0.464844 57.730469 L 0 57.730469 L 0 42.21875 L 4.441406 42.21875 L 4.441406 43.257812 Z M 0.464844 43.257812 "></path>
    <path style=" stroke:none;fill-rule:nonzero;fill:rgb(6.27451%,9.411765%,12.54902%);fill-opacity:1;" d="M 11.167969 53.023438 C 11.019531 53.96875 10.800781 54.835938 10.523438 55.585938 C 10.238281 56.332031 9.898438 56.929688 9.519531 57.339844 C 9.109375 57.785156 8.664062 58.007812 8.214844 57.996094 C 7.578125 58.019531 6.957031 57.554688 6.429688 56.671875 C 5.90625 55.785156 5.503906 54.523438 5.28125 53.058594 C 5.128906 52.085938 5.054688 51.058594 5.054688 50.019531 L 5.054688 49.976562 C 5.054688 48.933594 5.132812 47.898438 5.285156 46.929688 C 5.433594 45.980469 5.648438 45.113281 5.929688 44.363281 C 6.210938 43.617188 6.550781 43.023438 6.929688 42.609375 C 7.339844 42.175781 7.78125 41.953125 8.230469 41.953125 C 8.675781 41.953125 9.121094 42.175781 9.53125 42.609375 C 9.910156 43.023438 10.25 43.621094 10.53125 44.363281 C 10.808594 45.101562 11.027344 45.964844 11.167969 46.902344 C 11.320312 47.871094 11.398438 48.902344 11.394531 49.941406 C 11.398438 49.941406 11.398438 49.945312 11.398438 49.949219 C 11.398438 49.953125 11.398438 49.957031 11.398438 49.960938 C 11.398438 49.964844 11.398438 49.96875 11.398438 49.972656 C 11.398438 49.976562 11.398438 49.980469 11.394531 49.984375 C 11.398438 51.023438 11.320312 52.054688 11.167969 53.023438 Z M 10.910156 49.976562 C 10.910156 49.046875 10.84375 48.125 10.707031 47.257812 C 10.578125 46.445312 10.386719 45.703125 10.148438 45.0625 C 9.90625 44.429688 9.617188 43.921875 9.296875 43.570312 C 8.957031 43.191406 8.589844 43.003906 8.214844 43.011719 C 7.855469 43.003906 7.5 43.179688 7.167969 43.527344 C 6.835938 43.878906 6.539062 44.390625 6.292969 45.039062 C 6.054688 45.679688 5.867188 46.425781 5.738281 47.234375 C 5.605469 48.097656 5.539062 49.015625 5.542969 49.941406 L 5.542969 49.984375 C 5.539062 50.914062 5.609375 51.835938 5.746094 52.703125 C 5.875 53.511719 6.0625 54.257812 6.304688 54.894531 C 6.542969 55.527344 6.832031 56.035156 7.152344 56.390625 C 7.492188 56.765625 7.863281 56.957031 8.234375 56.945312 C 8.59375 56.957031 8.953125 56.78125 9.28125 56.433594 C 9.613281 56.082031 9.910156 55.566406 10.15625 54.917969 C 10.398438 54.28125 10.585938 53.535156 10.710938 52.722656 C 10.84375 51.859375 10.910156 50.941406 10.910156 50.019531 Z M 10.910156 49.976562 "></path>
    <path style=" stroke:none;fill-rule:nonzero;fill:rgb(6.27451%,9.411765%,12.54902%);fill-opacity:1;" d="M 17.492188 54.089844 C 17.375 54.886719 17.195312 55.617188 16.957031 56.226562 C 16.726562 56.808594 16.449219 57.257812 16.140625 57.542969 C 15.804688 57.847656 15.449219 57.996094 15.089844 57.980469 C 14.738281 57.988281 14.386719 57.839844 14.050781 57.542969 C 13.742188 57.265625 13.464844 56.824219 13.230469 56.257812 C 12.992188 55.660156 12.8125 54.945312 12.695312 54.160156 C 12.5625 53.234375 12.5 52.257812 12.507812 51.277344 L 12.507812 42.21875 L 12.976562 42.21875 L 12.976562 51.171875 C 12.976562 53.023438 13.164062 54.445312 13.539062 55.441406 C 13.914062 56.4375 14.4375 56.933594 15.109375 56.9375 C 15.402344 56.949219 15.695312 56.828125 15.972656 56.582031 C 16.226562 56.355469 16.453125 55.992188 16.636719 55.515625 C 16.828125 55.011719 16.972656 54.414062 17.058594 53.757812 C 17.164062 52.964844 17.214844 52.136719 17.207031 51.300781 L 17.207031 42.21875 L 17.675781 42.21875 L 17.675781 51.152344 C 17.683594 52.148438 17.621094 53.144531 17.492188 54.089844 Z M 17.492188 54.089844 "></path>
    <path style=" stroke:none;fill-rule:nonzero;fill:rgb(6.27451%,9.411765%,12.54902%);fill-opacity:1;" d="M 23.957031 57.730469 L 19.519531 43.925781 L 19.519531 57.714844 L 19.066406 57.714844 L 19.066406 42.21875 L 19.507812 42.21875 L 23.859375 55.71875 L 23.859375 42.21875 L 24.308594 42.21875 L 24.308594 57.730469 Z M 23.957031 57.730469 "></path>
    <path style=" stroke:none;fill-rule:nonzero;fill:rgb(6.27451%,9.411765%,12.54902%);fill-opacity:1;" d="M 31 53.035156 C 30.84375 53.960938 30.609375 54.800781 30.3125 55.492188 C 30 56.207031 29.636719 56.765625 29.242188 57.136719 C 28.808594 57.542969 28.347656 57.746094 27.886719 57.730469 L 25.789062 57.730469 L 25.789062 42.21875 L 27.890625 42.21875 C 28.351562 42.203125 28.8125 42.402344 29.246094 42.800781 C 29.640625 43.167969 30.003906 43.722656 30.316406 44.433594 C 30.609375 45.125 30.84375 45.960938 31.003906 46.882812 C 31.167969 47.847656 31.25 48.886719 31.246094 49.929688 L 31.246094 49.976562 C 31.25 51.027344 31.164062 52.066406 31 53.035156 Z M 30.757812 49.960938 C 30.757812 49.070312 30.691406 48.183594 30.554688 47.359375 C 30.421875 46.566406 30.226562 45.847656 29.980469 45.242188 C 29.722656 44.617188 29.417969 44.121094 29.082031 43.792969 C 28.703125 43.429688 28.300781 43.246094 27.894531 43.261719 L 26.261719 43.261719 L 26.261719 56.695312 L 27.894531 56.695312 C 28.300781 56.710938 28.703125 56.53125 29.082031 56.171875 C 29.417969 55.855469 29.722656 55.371094 29.980469 54.75 C 30.226562 54.148438 30.421875 53.429688 30.554688 52.640625 C 30.691406 51.804688 30.761719 50.910156 30.757812 50.007812 Z M 30.757812 49.960938 "></path>
    <path style=" stroke:none;fill-rule:nonzero;fill:rgb(6.27451%,9.411765%,12.54902%);fill-opacity:1;" d="M 37.3125 57.730469 L 36.511719 53.390625 L 32.792969 53.390625 L 31.992188 57.730469 L 31.496094 57.730469 L 34.433594 42.105469 L 34.886719 42.105469 L 37.820312 57.730469 Z M 34.65625 43.367188 L 32.992188 52.34375 L 36.3125 52.34375 Z M 34.65625 43.367188 "></path>
    <path style=" stroke:none;fill-rule:nonzero;fill:rgb(6.27451%,9.411765%,12.54902%);fill-opacity:1;" d="M 40.179688 43.257812 L 40.179688 57.746094 L 39.703125 57.746094 L 39.703125 43.257812 L 37.511719 43.257812 L 37.511719 42.21875 L 42.378906 42.21875 L 42.378906 43.257812 Z M 40.179688 43.257812 "></path>
    <path style=" stroke:none;fill-rule:nonzero;fill:rgb(6.27451%,9.411765%,12.54902%);fill-opacity:1;" d="M 43.472656 57.730469 L 43.472656 42.21875 L 43.941406 42.21875 L 43.941406 57.730469 Z M 43.472656 57.730469 "></path>
    <path style=" stroke:none;fill-rule:nonzero;fill:rgb(6.27451%,9.411765%,12.54902%);fill-opacity:1;" d="M 51.324219 53.023438 C 51.175781 53.96875 50.957031 54.835938 50.679688 55.585938 C 50.394531 56.332031 50.054688 56.929688 49.675781 57.339844 C 49.265625 57.785156 48.820312 58.007812 48.371094 57.996094 C 47.925781 58.011719 47.480469 57.789062 47.070312 57.339844 C 46.695312 56.925781 46.355469 56.328125 46.078125 55.585938 C 45.800781 54.851562 45.582031 53.988281 45.4375 53.046875 C 45.285156 52.078125 45.210938 51.046875 45.210938 50.011719 L 45.210938 49.964844 C 45.210938 48.925781 45.289062 47.890625 45.441406 46.917969 C 45.589844 45.972656 45.808594 45.105469 46.085938 44.355469 C 46.367188 43.609375 46.707031 43.011719 47.085938 42.601562 C 47.496094 42.167969 47.941406 41.949219 48.386719 41.949219 C 48.835938 41.949219 49.277344 42.175781 49.6875 42.609375 C 50.066406 43.023438 50.40625 43.621094 50.691406 44.363281 C 50.964844 45.101562 51.183594 45.964844 51.328125 46.902344 C 51.480469 47.871094 51.558594 48.902344 51.554688 49.941406 C 51.554688 49.941406 51.558594 49.945312 51.558594 49.949219 C 51.558594 49.953125 51.558594 49.957031 51.558594 49.960938 C 51.558594 49.964844 51.558594 49.96875 51.558594 49.972656 C 51.558594 49.976562 51.554688 49.980469 51.554688 49.984375 C 51.554688 51.023438 51.476562 52.054688 51.324219 53.023438 Z M 51.066406 49.976562 C 51.066406 49.046875 51 48.125 50.863281 47.257812 C 50.734375 46.445312 50.542969 45.703125 50.304688 45.0625 C 50.0625 44.429688 49.773438 43.921875 49.453125 43.570312 C 49.113281 43.191406 48.746094 43.003906 48.371094 43.011719 C 48.011719 43.003906 47.65625 43.179688 47.324219 43.527344 C 46.992188 43.878906 46.695312 44.390625 46.449219 45.039062 C 46.210938 45.679688 46.023438 46.421875 45.898438 47.234375 C 45.761719 48.097656 45.695312 49.015625 45.699219 49.941406 L 45.699219 49.984375 C 45.695312 50.914062 45.765625 51.835938 45.902344 52.703125 C 46.03125 53.511719 46.21875 54.257812 46.460938 54.894531 C 46.699219 55.527344 46.988281 56.035156 47.308594 56.390625 C 47.648438 56.765625 48.019531 56.957031 48.390625 56.945312 C 48.75 56.957031 49.109375 56.78125 49.4375 56.433594 C 49.769531 56.082031 50.066406 55.566406 50.3125 54.917969 C 50.554688 54.28125 50.742188 53.535156 50.867188 52.722656 C 51 51.859375 51.070312 50.941406 51.066406 50.019531 Z M 51.066406 49.976562 "></path>
    <path style=" stroke:none;fill-rule:nonzero;fill:rgb(6.27451%,9.411765%,12.54902%);fill-opacity:1;" d="M 57.648438 57.730469 L 53.210938 43.925781 L 53.210938 57.714844 L 52.757812 57.714844 L 52.757812 42.21875 L 53.199219 42.21875 L 57.550781 55.71875 L 57.550781 42.21875 L 58 42.21875 L 58 57.730469 Z M 57.648438 57.730469 "></path>
  </g>
</svg>
