<?xml version="1.0" encoding="UTF-8"?>
<svg xmlns="http://www.w3.org/2000/svg" width="141" height="58" viewBox="0 0 141 58" fill="none">
  <g clip-path="url(#clip0_13_2)">
    <path d="M27.306 35.5849V12.5114L17.4901 27.5952H17.2906L7.5744 12.6694V35.5849H0V0.250229H8.27244L17.438 15.1761L26.6079 0.250229H34.8804V35.5849H27.306Z" fill="#101820"></path>
    <path d="M66.7171 35.5849L63.526 27.683H48.7848L45.5937 35.5849H37.7896L52.7389 0.0263367H59.8104L74.7597 35.5849H66.7171ZM56.1511 9.33303L51.5206 20.782H60.7859L56.1511 9.33303Z" fill="#101820"></path>
    <path d="M102.092 35.5849L85.1825 13.1391V35.5849H77.6255V0.250229H84.7013L101.042 21.9761V0.250229H108.617V35.5849H102.092Z" fill="#101820"></path>
    <path d="M114.496 35.5849V0.250229H140.74V7.1644H122.07V14.3288H138.511V21.2386H122.07V28.6532H141.004V35.5849H114.496Z" fill="#101820"></path>
    <path d="M1.13161 43.2586V49.6635H9.80293V50.7083H1.13161V57.7322H0V42.2181H10.7958V43.2586H1.13161Z" fill="#101820"></path>
    <path d="M27.1456 53.0218C26.7872 53.9681 26.2562 54.8378 25.5804 55.5855C24.8929 56.3326 24.0624 56.93 23.1394 57.3415C22.1425 57.7852 21.0634 58.0082 19.9744 57.9956C18.4272 58.0178 16.911 57.5551 15.6334 56.671C14.3559 55.7869 13.3795 54.5246 12.8379 53.0569C12.4723 52.0871 12.2871 51.0571 12.2916 50.0191V49.9752C12.2862 48.9334 12.4744 47.8998 12.8466 46.9285C13.205 45.9822 13.736 45.1125 14.4118 44.3648C15.0969 43.6189 15.9243 43.0215 16.8441 42.6088C17.844 42.1772 18.9199 41.9546 20.0069 41.9546C21.094 41.9546 22.1698 42.1772 23.1698 42.6088C24.0889 43.0226 24.9162 43.6198 25.6021 44.3648C26.2764 45.1012 26.8035 45.9629 27.1543 46.9022C27.5216 47.8717 27.7083 48.9017 27.7049 49.9401C27.7078 49.9429 27.7101 49.9463 27.7116 49.9501C27.7132 49.9539 27.714 49.9579 27.714 49.962C27.714 49.9661 27.7132 49.9701 27.7116 49.9739C27.7101 49.9777 27.7078 49.9811 27.7049 49.9839C27.7078 51.0231 27.5181 52.0535 27.1456 53.0218ZM26.5213 49.9752C26.527 49.0459 26.3594 48.124 26.027 47.2578C25.7147 46.4464 25.2544 45.7017 24.6699 45.0628C24.0859 44.4305 23.3827 43.923 22.6018 43.5702C21.7766 43.1929 20.8799 43.0026 19.9744 43.0127C19.0989 43.0031 18.231 43.1785 17.4262 43.5277C16.6215 43.877 15.8975 44.3923 15.3006 45.0409C14.7175 45.6792 14.2599 46.4241 13.9522 47.2358C13.6278 48.0993 13.4647 49.0163 13.4709 49.9401V49.9839C13.4651 50.9132 13.6328 51.8352 13.9652 52.7013C14.2781 53.5124 14.7384 54.2569 15.3222 54.8963C15.9063 55.5286 16.6095 56.0362 17.3904 56.3889C18.2156 56.7662 19.1123 56.9565 20.0178 56.9464C20.8934 56.9571 21.7616 56.7822 22.5666 56.4329C23.3715 56.0836 24.0953 55.5677 24.6916 54.9183C25.2755 54.2806 25.7333 53.5355 26.04 52.7233C26.3643 51.8598 26.5275 50.9429 26.5213 50.0191V49.9752Z" fill="#101820"></path>
    <path d="M42.5198 54.0885C42.243 54.8875 41.7993 55.6167 41.2191 56.2265C40.6627 56.8082 39.9861 57.258 39.2377 57.5434C38.4214 57.8458 37.5574 57.9946 36.6883 57.9824C35.8267 57.9888 34.9708 57.8402 34.1606 57.5434C33.4123 57.2647 32.732 56.826 32.1662 56.2572C31.5883 55.6608 31.1446 54.945 30.8655 54.1588C30.5422 53.2347 30.3865 52.2591 30.4059 51.279V42.2181H31.5419V51.1736C31.5419 53.0233 31.9985 54.4456 32.9119 55.4407C33.8253 56.4357 35.0985 56.9347 36.7316 56.9376C37.448 56.9477 38.1602 56.8273 38.8344 56.582C39.4445 56.3564 39.9949 55.9914 40.443 55.5153C40.9087 55.0135 41.2595 54.4139 41.4705 53.7593C41.7268 52.9662 41.8499 52.1352 41.8347 51.3009V42.2181H42.9707V51.1517C42.9914 52.1498 42.8388 53.1439 42.5198 54.0885Z" fill="#101820"></path>
    <path d="M58.2409 57.7322L47.4495 43.9258V57.7147H46.3525V42.2181H47.4278L58.0025 55.7172V42.2181H59.095V57.7322H58.2409Z" fill="#101820"></path>
    <path d="M75.3622 53.035C74.9784 53.9628 74.4085 54.8 73.6887 55.4933C72.9353 56.2068 72.0517 56.7645 71.0873 57.1352C70.036 57.5432 68.9179 57.7458 67.7922 57.7322H62.6978V42.2181H67.8008C68.9254 42.205 70.0426 42.403 71.0959 42.802C72.0607 43.1679 72.9447 43.7228 73.6973 44.4351C74.416 45.126 74.9858 45.96 75.3709 46.8846C75.7702 47.849 75.9708 48.8857 75.9605 49.9313V49.9752C75.9672 51.0255 75.7636 52.0664 75.3622 53.035ZM74.7726 49.962C74.7775 49.0699 74.6096 48.1854 74.2783 47.3588C73.9574 46.567 73.4844 45.8478 72.8866 45.2428C72.2604 44.6157 71.5157 44.123 70.697 43.7941C69.778 43.4278 68.797 43.2474 67.8095 43.2629H63.8467V56.6962H67.8095C68.7961 56.7101 69.7762 56.5328 70.697 56.1738C71.515 55.8558 72.2601 55.3717 72.8866 54.7514C73.4858 54.1493 73.9591 53.4312 74.2783 52.6399C74.6138 51.8037 74.7819 50.9084 74.7726 50.0059V49.962Z" fill="#101820"></path>
    <path d="M90.7108 57.7322L88.7641 53.3906H79.72L77.7732 57.7322H76.5723L83.7088 42.104H84.81L91.9465 57.7322H90.7108ZM84.2507 43.3683L80.2012 52.3457H88.2785L84.2507 43.3683Z" fill="#101820"></path>
    <path d="M97.6737 43.2586V57.7454H96.5161V43.2586H91.1919V42.2181H103.02V43.2586H97.6737Z" fill="#101820"></path>
    <path d="M105.686 57.7322V42.2181H106.826V57.7322H105.686Z" fill="#101820"></path>
    <path d="M124.767 53.0218C124.409 53.9681 123.878 54.8378 123.202 55.5855C122.514 56.3326 121.684 56.93 120.761 57.3415C119.764 57.7852 118.685 58.0082 117.596 57.9956C116.507 58.0108 115.427 57.7877 114.431 57.3415C113.518 56.9264 112.696 56.3292 112.016 55.5855C111.34 54.85 110.811 53.9881 110.459 53.0481C110.094 52.0783 109.909 51.0483 109.913 50.0103V49.9664C109.91 48.9248 110.098 47.8916 110.468 46.9198C110.828 45.9743 111.359 45.1049 112.033 44.356C112.718 43.6101 113.546 43.0128 114.466 42.6001C115.467 42.1692 116.544 41.9478 117.632 41.9493C118.719 41.9508 119.796 42.1752 120.796 42.6088C121.715 43.0226 122.542 43.6198 123.228 44.3648C123.902 45.1022 124.43 45.9635 124.784 46.9022C125.15 47.8719 125.336 48.902 125.331 49.9401C125.334 49.9429 125.336 49.9463 125.338 49.9501C125.339 49.9539 125.34 49.9579 125.34 49.962C125.34 49.9661 125.339 49.9701 125.338 49.9739C125.336 49.9777 125.334 49.9811 125.331 49.9839C125.332 51.0234 125.141 52.0538 124.767 53.0218ZM124.143 49.9752C124.148 49.0464 123.982 48.1248 123.653 47.2578C123.337 46.447 122.876 45.7026 122.291 45.0628C121.707 44.4305 121.004 43.923 120.223 43.5702C119.398 43.1929 118.501 43.0026 117.596 43.0127C116.72 43.0031 115.853 43.1785 115.048 43.5277C114.243 43.877 113.519 44.3923 112.922 45.0409C112.339 45.6783 111.883 46.4235 111.578 47.2358C111.25 48.0984 111.085 49.0158 111.092 49.9401V49.9839C111.087 50.9132 111.254 51.8351 111.587 52.7013C111.9 53.5124 112.36 54.2569 112.944 54.8963C113.528 55.5286 114.231 56.0362 115.012 56.3889C115.837 56.7662 116.734 56.9565 117.639 56.9464C118.515 56.9571 119.383 56.7822 120.188 56.4329C120.993 56.0836 121.717 55.5677 122.313 54.9183C122.897 54.2806 123.355 53.5355 123.662 52.7233C123.986 51.8598 124.149 50.9429 124.143 50.0191V49.9752Z" fill="#101820"></path>
    <path d="M140.15 57.7322L129.354 43.9258V57.7147H128.257V42.2181H129.333L139.907 55.7172V42.2181H141.004V57.7322H140.15Z" fill="#101820"></path>
  </g>
  <defs>
    <clipPath id="clip0_13_2">
      <rect width="141" height="58" fill="white"></rect>
    </clipPath>
  </defs>
</svg>
