<?xml version="1.0" encoding="UTF-8"?>
<svg xmlns="http://www.w3.org/2000/svg" xmlns:xlink="http://www.w3.org/1999/xlink" width="141px" height="141px" viewBox="0 0 141 141" version="1.1">
  <g id="surface1">
    <path style=" stroke:none;fill-rule:nonzero;fill:rgb(6.27451%,9.411765%,12.54902%);fill-opacity:1;" d="M 27.304688 86.507812 L 27.304688 30.414062 L 17.488281 67.085938 L 17.289062 67.085938 L 7.574219 30.800781 L 7.574219 86.507812 L 0 86.507812 L 0 0.609375 L 8.273438 0.609375 L 17.4375 36.894531 L 26.609375 0.609375 L 34.878906 0.609375 L 34.878906 86.507812 Z M 27.304688 86.507812 "></path>
    <path style=" stroke:none;fill-rule:nonzero;fill:rgb(6.27451%,9.411765%,12.54902%);fill-opacity:1;" d="M 66.71875 86.507812 L 63.527344 67.296875 L 48.785156 67.296875 L 45.59375 86.507812 L 37.789062 86.507812 L 52.738281 0.0625 L 59.808594 0.0625 L 74.757812 86.507812 Z M 56.152344 22.6875 L 51.519531 50.523438 L 60.785156 50.523438 Z M 56.152344 22.6875 "></path>
    <path style=" stroke:none;fill-rule:nonzero;fill:rgb(6.27451%,9.411765%,12.54902%);fill-opacity:1;" d="M 102.09375 86.507812 L 85.183594 31.941406 L 85.183594 86.507812 L 77.625 86.507812 L 77.625 0.609375 L 84.703125 0.609375 L 101.042969 53.425781 L 101.042969 0.609375 L 108.617188 0.609375 L 108.617188 86.507812 Z M 102.09375 86.507812 "></path>
    <path style=" stroke:none;fill-rule:nonzero;fill:rgb(6.27451%,9.411765%,12.54902%);fill-opacity:1;" d="M 114.496094 86.507812 L 114.496094 0.609375 L 140.738281 0.609375 L 140.738281 17.417969 L 122.070312 17.417969 L 122.070312 34.832031 L 138.511719 34.832031 L 138.511719 51.632812 L 122.070312 51.632812 L 122.070312 69.65625 L 141.003906 69.65625 L 141.003906 86.507812 Z M 114.496094 86.507812 "></path>
    <path style=" stroke:none;fill-rule:nonzero;fill:rgb(6.27451%,9.411765%,12.54902%);fill-opacity:1;" d="M 1.132812 105.164062 L 1.132812 120.734375 L 9.804688 120.734375 L 9.804688 123.273438 L 1.132812 123.273438 L 1.132812 140.347656 L 0 140.347656 L 0 102.632812 L 10.796875 102.632812 L 10.796875 105.164062 Z M 1.132812 105.164062 "></path>
    <path style=" stroke:none;fill-rule:nonzero;fill:rgb(6.27451%,9.411765%,12.54902%);fill-opacity:1;" d="M 27.144531 128.898438 C 26.789062 131.199219 26.257812 133.3125 25.582031 135.128906 C 24.894531 136.945312 24.0625 138.398438 23.140625 139.398438 C 22.140625 140.476562 21.0625 141.019531 19.972656 140.988281 C 18.425781 141.042969 16.910156 139.917969 15.632812 137.769531 C 14.355469 135.621094 13.378906 132.550781 12.839844 128.984375 C 12.472656 126.625 12.285156 124.121094 12.292969 121.597656 L 12.292969 121.492188 C 12.285156 118.957031 12.472656 116.445312 12.847656 114.085938 C 13.203125 111.785156 13.734375 109.671875 14.410156 107.851562 C 15.097656 106.039062 15.925781 104.585938 16.84375 103.582031 C 17.84375 102.535156 18.917969 101.992188 20.007812 101.992188 C 21.09375 101.992188 22.167969 102.535156 23.167969 103.582031 C 24.089844 104.589844 24.917969 106.042969 25.601562 107.851562 C 26.277344 109.640625 26.804688 111.738281 27.15625 114.019531 C 27.523438 116.378906 27.707031 118.882812 27.703125 121.40625 C 27.707031 121.414062 27.710938 121.421875 27.710938 121.429688 C 27.714844 121.441406 27.714844 121.449219 27.714844 121.460938 C 27.714844 121.46875 27.714844 121.480469 27.710938 121.488281 C 27.710938 121.496094 27.707031 121.503906 27.703125 121.511719 C 27.707031 124.039062 27.519531 126.542969 27.144531 128.898438 Z M 26.519531 121.492188 C 26.527344 119.230469 26.359375 116.992188 26.027344 114.886719 C 25.714844 112.914062 25.253906 111.101562 24.667969 109.550781 C 24.085938 108.011719 23.382812 106.777344 22.601562 105.921875 C 21.777344 105.003906 20.878906 104.539062 19.972656 104.566406 C 19.097656 104.542969 18.230469 104.96875 17.425781 105.816406 C 16.621094 106.667969 15.898438 107.917969 15.300781 109.496094 C 14.71875 111.046875 14.261719 112.859375 13.953125 114.832031 C 13.628906 116.929688 13.464844 119.160156 13.472656 121.40625 L 13.472656 121.511719 C 13.464844 123.773438 13.632812 126.011719 13.964844 128.117188 C 14.277344 130.089844 14.738281 131.902344 15.320312 133.453125 C 15.90625 134.992188 16.609375 136.226562 17.390625 137.082031 C 18.214844 138 19.113281 138.464844 20.019531 138.4375 C 20.894531 138.464844 21.761719 138.039062 22.566406 137.191406 C 23.371094 136.339844 24.09375 135.085938 24.691406 133.507812 C 25.277344 131.957031 25.734375 130.148438 26.039062 128.171875 C 26.363281 126.074219 26.527344 123.84375 26.519531 121.597656 Z M 26.519531 121.492188 "></path>
    <path style=" stroke:none;fill-rule:nonzero;fill:rgb(6.27451%,9.411765%,12.54902%);fill-opacity:1;" d="M 42.519531 131.492188 C 42.242188 133.433594 41.800781 135.207031 41.21875 136.6875 C 40.664062 138.101562 39.984375 139.195312 39.238281 139.890625 C 38.421875 140.625 37.558594 140.988281 36.6875 140.957031 C 35.828125 140.972656 34.972656 140.613281 34.160156 139.890625 C 33.414062 139.210938 32.730469 138.144531 32.167969 136.761719 C 31.589844 135.3125 31.144531 133.574219 30.867188 131.660156 C 30.542969 129.414062 30.386719 127.042969 30.40625 124.660156 L 30.40625 102.632812 L 31.542969 102.632812 L 31.542969 124.40625 C 31.542969 128.902344 32 132.359375 32.910156 134.777344 C 33.824219 137.195312 35.097656 138.410156 36.730469 138.417969 C 37.449219 138.441406 38.160156 138.148438 38.835938 137.554688 C 39.445312 137.003906 39.996094 136.117188 40.441406 134.960938 C 40.910156 133.738281 41.257812 132.28125 41.46875 130.691406 C 41.726562 128.761719 41.851562 126.742188 41.835938 124.714844 L 41.835938 102.632812 L 42.96875 102.632812 L 42.96875 124.351562 C 42.992188 126.777344 42.839844 129.195312 42.519531 131.492188 Z M 42.519531 131.492188 "></path>
    <path style=" stroke:none;fill-rule:nonzero;fill:rgb(6.27451%,9.411765%,12.54902%);fill-opacity:1;" d="M 58.242188 140.347656 L 47.449219 106.785156 L 47.449219 140.304688 L 46.351562 140.304688 L 46.351562 102.632812 L 47.429688 102.632812 L 58.003906 135.449219 L 58.003906 102.632812 L 59.09375 102.632812 L 59.09375 140.347656 Z M 58.242188 140.347656 "></path>
    <path style=" stroke:none;fill-rule:nonzero;fill:rgb(6.27451%,9.411765%,12.54902%);fill-opacity:1;" d="M 75.363281 128.929688 C 74.976562 131.183594 74.410156 133.21875 73.6875 134.90625 C 72.933594 136.640625 72.050781 137.996094 71.085938 138.898438 C 70.035156 139.890625 68.917969 140.382812 67.792969 140.347656 L 62.699219 140.347656 L 62.699219 102.632812 L 67.800781 102.632812 C 68.925781 102.601562 70.042969 103.082031 71.097656 104.054688 C 72.0625 104.941406 72.945312 106.292969 73.699219 108.023438 C 74.414062 109.703125 74.984375 111.730469 75.371094 113.976562 C 75.769531 116.324219 75.972656 118.84375 75.960938 121.382812 L 75.960938 121.492188 C 75.96875 124.042969 75.761719 126.574219 75.363281 128.929688 Z M 74.773438 121.460938 C 74.777344 119.289062 74.609375 117.140625 74.277344 115.132812 C 73.957031 113.207031 73.484375 111.457031 72.886719 109.988281 C 72.261719 108.460938 71.515625 107.265625 70.695312 106.464844 C 69.777344 105.574219 68.796875 105.136719 67.808594 105.171875 L 63.847656 105.171875 L 63.847656 137.832031 L 67.808594 137.832031 C 68.796875 137.863281 69.777344 137.433594 70.695312 136.558594 C 71.515625 135.789062 72.261719 134.609375 72.886719 133.101562 C 73.484375 131.640625 73.960938 129.894531 74.277344 127.96875 C 74.613281 125.9375 74.78125 123.761719 74.773438 121.566406 Z M 74.773438 121.460938 "></path>
    <path style=" stroke:none;fill-rule:nonzero;fill:rgb(6.27451%,9.411765%,12.54902%);fill-opacity:1;" d="M 90.710938 140.347656 L 88.765625 129.792969 L 79.71875 129.792969 L 77.773438 140.347656 L 76.574219 140.347656 L 83.707031 102.355469 L 84.808594 102.355469 L 91.945312 140.347656 Z M 84.25 105.429688 L 80.203125 127.253906 L 88.277344 127.253906 Z M 84.25 105.429688 "></path>
    <path style=" stroke:none;fill-rule:nonzero;fill:rgb(6.27451%,9.411765%,12.54902%);fill-opacity:1;" d="M 97.671875 105.164062 L 97.671875 140.382812 L 96.515625 140.382812 L 96.515625 105.164062 L 91.191406 105.164062 L 91.191406 102.632812 L 103.019531 102.632812 L 103.019531 105.164062 Z M 97.671875 105.164062 "></path>
    <path style=" stroke:none;fill-rule:nonzero;fill:rgb(6.27451%,9.411765%,12.54902%);fill-opacity:1;" d="M 105.6875 140.347656 L 105.6875 102.632812 L 106.824219 102.632812 L 106.824219 140.347656 Z M 105.6875 140.347656 "></path>
    <path style=" stroke:none;fill-rule:nonzero;fill:rgb(6.27451%,9.411765%,12.54902%);fill-opacity:1;" d="M 124.765625 128.898438 C 124.410156 131.199219 123.878906 133.3125 123.203125 135.128906 C 122.515625 136.945312 121.683594 138.398438 120.761719 139.398438 C 119.765625 140.476562 118.683594 141.019531 117.597656 140.988281 C 116.507812 141.027344 115.425781 140.484375 114.429688 139.398438 C 113.519531 138.390625 112.695312 136.9375 112.015625 135.128906 C 111.339844 133.34375 110.8125 131.246094 110.460938 128.960938 C 110.09375 126.605469 109.910156 124.101562 109.914062 121.578125 L 109.914062 121.46875 C 109.910156 118.9375 110.097656 116.425781 110.46875 114.0625 C 110.828125 111.765625 111.359375 109.652344 112.03125 107.832031 C 112.71875 106.019531 113.546875 104.566406 114.464844 103.5625 C 115.46875 102.515625 116.542969 101.976562 117.632812 101.980469 C 118.71875 101.984375 119.796875 102.53125 120.796875 103.582031 C 121.714844 104.589844 122.542969 106.042969 123.226562 107.851562 C 123.902344 109.644531 124.429688 111.738281 124.785156 114.019531 C 125.148438 116.378906 125.335938 118.882812 125.332031 121.40625 C 125.335938 121.414062 125.335938 121.421875 125.339844 121.429688 C 125.339844 121.441406 125.339844 121.449219 125.339844 121.460938 C 125.339844 121.46875 125.339844 121.480469 125.339844 121.488281 C 125.335938 121.496094 125.335938 121.503906 125.332031 121.511719 C 125.332031 124.039062 125.140625 126.542969 124.765625 128.898438 Z M 124.144531 121.492188 C 124.148438 119.234375 123.980469 116.992188 123.652344 114.886719 C 123.335938 112.914062 122.875 111.105469 122.289062 109.550781 C 121.707031 108.011719 121.003906 106.777344 120.222656 105.921875 C 119.398438 105.003906 118.5 104.539062 117.597656 104.566406 C 116.71875 104.542969 115.851562 104.96875 115.046875 105.816406 C 114.242188 106.667969 113.519531 107.917969 112.921875 109.496094 C 112.339844 111.046875 111.882812 112.855469 111.578125 114.832031 C 111.25 116.929688 111.085938 119.160156 111.09375 121.40625 L 111.09375 121.511719 C 111.085938 123.773438 111.253906 126.011719 111.585938 128.117188 C 111.898438 130.089844 112.359375 131.902344 112.945312 133.453125 C 113.527344 134.992188 114.230469 136.226562 115.011719 137.082031 C 115.835938 138 116.734375 138.464844 117.640625 138.4375 C 118.515625 138.464844 119.382812 138.039062 120.1875 137.191406 C 120.992188 136.339844 121.71875 135.085938 122.3125 133.507812 C 122.898438 131.957031 123.355469 130.148438 123.660156 128.171875 C 123.984375 126.074219 124.148438 123.84375 124.144531 121.597656 Z M 124.144531 121.492188 "></path>
    <path style=" stroke:none;fill-rule:nonzero;fill:rgb(6.27451%,9.411765%,12.54902%);fill-opacity:1;" d="M 140.148438 140.347656 L 129.355469 106.785156 L 129.355469 140.304688 L 128.257812 140.304688 L 128.257812 102.632812 L 129.332031 102.632812 L 139.90625 135.449219 L 139.90625 102.632812 L 141.003906 102.632812 L 141.003906 140.347656 Z M 140.148438 140.347656 "></path>
  </g>
</svg>
