<?xml version="1.0" encoding="UTF-8"?>
<svg xmlns="http://www.w3.org/2000/svg" xmlns:xlink="http://www.w3.org/1999/xlink" width="62px" height="45px" viewBox="0 0 61 45" version="1.1">
  <g id="surface1">
    <path style="fill-rule:nonzero;fill:rgb(0%,0%,0%);fill-opacity:1;stroke-width:1;stroke-linecap:butt;stroke-linejoin:miter;stroke:rgb(100%,100%,100%);stroke-opacity:1;stroke-miterlimit:10;" d="M 1315.62455 610.595 C 1315.62455 876.45824 1100.125857 1091.968593 834.28 1091.968593 C 568.434143 1091.968593 352.93545 876.45824 352.93545 610.595 C 352.93545 344.73176 568.434143 129.221407 834.28 129.221407 C 1100.125857 129.221407 1315.62455 344.73176 1315.62455 610.595 Z M 1315.62455 610.595 " transform="matrix(0.0365431,0,0,0.0368493,0.0127849,0)"></path>
    <path style=" stroke:none;fill-rule:nonzero;fill:rgb(100%,100%,100%);fill-opacity:1;" d="M 19.664062 12.222656 L 28.074219 23.558594 L 19.613281 32.777344 L 21.515625 32.777344 L 28.921875 24.707031 L 34.90625 32.777344 L 41.386719 32.777344 L 32.507812 20.804688 L 40.382812 12.222656 L 38.476562 12.222656 L 31.65625 19.65625 L 26.144531 12.222656 Z M 22.464844 13.636719 L 25.441406 13.636719 L 38.585938 31.363281 L 35.609375 31.363281 Z M 22.464844 13.636719 "></path>
  </g>
</svg>
