<svg xmlns="http://www.w3.org/2000/svg" width="21" height="21" viewBox="0 0 21 21" fill="#213773"><g id="right_bar" data-name="right-bar" transform="translate(-2124 -2665)"><path id="line_6562" data-name="line 6562" d="M2.5,1.5a1,1,0,1,0,1,1,1,1,0,0,0-1-1M2.5,0A2.5,2.5,0,1,1,0,2.5,2.5,2.5,0,0,1,2.5,0Z" transform="translate(2124 2665)"></path><path id="line_6563" data-name="line 6563" d="M2.5,1.5a1,1,0,1,0,1,1,1,1,0,0,0-1-1M2.5,0A2.5,2.5,0,1,1,0,2.5,2.5,2.5,0,0,1,2.5,0Z" transform="translate(2132 2665)"></path><path id="line_6564" data-name="line 6564" d="M2.5,1.5a1,1,0,1,0,1,1,1,1,0,0,0-1-1M2.5,0A2.5,2.5,0,1,1,0,2.5,2.5,2.5,0,0,1,2.5,0Z" transform="translate(2140 2665)"></path><path id="line_6567" data-name="line 6567" d="M2.5,1.5a1,1,0,1,0,1,1,1,1,0,0,0-1-1M2.5,0A2.5,2.5,0,1,1,0,2.5,2.5,2.5,0,0,1,2.5,0Z" transform="translate(2124 2673)"></path><path id="line_6566" data-name="line 6566" d="M2.5,1.5a1,1,0,1,0,1,1,1,1,0,0,0-1-1M2.5,0A2.5,2.5,0,1,1,0,2.5,2.5,2.5,0,0,1,2.5,0Z" transform="translate(2132 2673)"></path><path id="line_6565" data-name="line 6565" d="M2.5,1.5a1,1,0,1,0,1,1,1,1,0,0,0-1-1M2.5,0A2.5,2.5,0,1,1,0,2.5,2.5,2.5,0,0,1,2.5,0Z" transform="translate(2140 2673)"></path><path id="line_6568" data-name="line 6568" d="M2.5,1.5a1,1,0,1,0,1,1,1,1,0,0,0-1-1M2.5,0A2.5,2.5,0,1,1,0,2.5,2.5,2.5,0,0,1,2.5,0Z" transform="translate(2124 2681)"></path><path id="line_6569" data-name="line 6569" d="M2.5,1.5a1,1,0,1,0,1,1,1,1,0,0,0-1-1M2.5,0A2.5,2.5,0,1,1,0,2.5,2.5,2.5,0,0,1,2.5,0Z" transform="translate(2132 2681)"></path><path id="line_6570" data-name="line 6570" d="M2.5,1.5a1,1,0,1,0,1,1,1,1,0,0,0-1-1M2.5,0A2.5,2.5,0,1,1,0,2.5,2.5,2.5,0,0,1,2.5,0Z" transform="translate(2140 2681)"></path></g></svg>