<svg xmlns="http://www.w3.org/2000/svg" id="balloon" width="71.843" height="79.018" viewBox="0 0 71.843 79.018"><g id="&#x421;&#x433;&#x440;&#x443;&#x43F;&#x43F;&#x438;&#x440;&#x43E;&#x432;&#x430;&#x442;&#x44C;_9032" data-name="&#x421;&#x433;&#x440;&#x443;&#x43F;&#x43F;&#x438;&#x440;&#x43E;&#x432;&#x430;&#x442;&#x44C; 9032" transform="translate(1.228 1.235)"><path id="&#x41A;&#x43E;&#x43D;&#x442;&#x443;&#x440;_6912" data-name="&#x41A;&#x43E;&#x43D;&#x442;&#x443;&#x440; 6912" d="M264.562,111.469c6.833,0,18.082-11.984,18.082-26.6a18.082,18.082,0,1,0-36.163,0C246.48,99.485,257.729,111.469,264.562,111.469Z" transform="translate(-213.255 -57.718)" fill="#92e0ff"></path><path id="&#x41A;&#x43E;&#x43D;&#x442;&#x443;&#x440;_6913" data-name="&#x41A;&#x43E;&#x43D;&#x442;&#x443;&#x440; 6913" d="M264.562,200.984c-6.592,0-17.29-11.152-18.039-25.057-.028.409-.043.822-.043,1.238,0,14.612,11.249,26.6,18.082,26.6s18.082-11.984,18.082-26.6c0-.416-.015-.829-.043-1.238C281.852,189.832,271.153,200.984,264.562,200.984Z" transform="translate(-213.255 -150.01)" fill="#75d5f2"></path><path id="&#x41A;&#x43E;&#x43D;&#x442;&#x443;&#x440;_6914" data-name="&#x41A;&#x43E;&#x43D;&#x442;&#x443;&#x440; 6914" d="M339.046,351.041a7.507,7.507,0,0,1-6.781,0l-1.632,4.255A1.256,1.256,0,0,0,331.805,357h7.7a1.256,1.256,0,0,0,1.172-1.705Z" transform="translate(-284.349 -298.098)" fill="#75d5f2"></path><path id="&#x41A;&#x43E;&#x43D;&#x442;&#x443;&#x440;_6915" data-name="&#x41A;&#x43E;&#x43D;&#x442;&#x443;&#x440; 6915" d="M335.854,353.381a8,8,0,0,0,8.577,0l-.9-2.34a7.507,7.507,0,0,1-6.781,0Z" transform="translate(-288.836 -298.098)" fill="#6cc4d8"></path><path id="&#x41A;&#x43E;&#x43D;&#x442;&#x443;&#x440;_6916" data-name="&#x41A;&#x43E;&#x43D;&#x442;&#x443;&#x440; 6916" d="M52.574,60.814c8.077,0,21.374-14.167,21.374-31.44a21.374,21.374,0,1,0-42.748,0C31.2,46.647,44.5,60.814,52.574,60.814Z" transform="translate(-31.2 -8)" fill="#ffe08c"></path><path id="&#x41A;&#x43E;&#x43D;&#x442;&#x443;&#x440;_6917" data-name="&#x41A;&#x43E;&#x43D;&#x442;&#x443;&#x440; 6917" d="M52.574,60.814c8.077,0,21.374-14.167,21.374-31.44a21.374,21.374,0,1,0-42.748,0C31.2,46.647,44.5,60.814,52.574,60.814Z" transform="translate(-31.2 -8)" fill="#ffe08c"></path><path id="&#x41A;&#x43E;&#x43D;&#x442;&#x443;&#x440;_6918" data-name="&#x41A;&#x43E;&#x43D;&#x442;&#x443;&#x440; 6918" d="M52.574,60.814c8.077,0,21.374-14.167,21.374-31.44a21.374,21.374,0,1,0-42.748,0C31.2,46.647,44.5,60.814,52.574,60.814Z" transform="translate(-31.2 -8)" fill="#b3e59f"></path><path id="&#x41A;&#x43E;&#x43D;&#x442;&#x443;&#x440;_6919" data-name="&#x41A;&#x43E;&#x43D;&#x442;&#x443;&#x440; 6919" d="M52.574,168.41c-7.835,0-20.58-13.329-21.338-29.893-.023.408-.036.818-.036,1.231,0,17.273,13.3,31.44,21.374,31.44s21.374-14.167,21.374-31.44c0-.413-.013-.824-.036-1.231C73.154,155.081,60.409,168.41,52.574,168.41Z" transform="translate(-31.2 -118.374)" fill="#95d6a4"></path><path id="&#x41A;&#x43E;&#x43D;&#x442;&#x443;&#x440;_6920" data-name="&#x41A;&#x43E;&#x43D;&#x442;&#x443;&#x440; 6920" d="M140.621,344.009a8.874,8.874,0,0,1-8.016,0l-1.929,5.03a1.484,1.484,0,0,0,1.386,2.016h9.1a1.484,1.484,0,0,0,1.386-2.016Z" transform="translate(-115.239 -292.152)" fill="#95d6a4"></path><path id="&#x41A;&#x43E;&#x43D;&#x442;&#x443;&#x440;_6921" data-name="&#x41A;&#x43E;&#x43D;&#x442;&#x443;&#x440; 6921" d="M137.894,346.355a9.367,9.367,0,0,0,9.816,0l-.9-2.346a8.874,8.874,0,0,1-8.016,0Z" transform="translate(-121.428 -292.152)" fill="#78c2a4"></path></g><g id="&#x421;&#x433;&#x440;&#x443;&#x43F;&#x43F;&#x438;&#x440;&#x43E;&#x432;&#x430;&#x442;&#x44C;_9033" data-name="&#x421;&#x433;&#x440;&#x443;&#x43F;&#x43F;&#x438;&#x440;&#x43E;&#x432;&#x430;&#x442;&#x44C; 9033" transform="translate(0)"><path id="&#x41A;&#x43E;&#x43D;&#x442;&#x443;&#x440;_6922" data-name="&#x41A;&#x43E;&#x43D;&#x442;&#x443;&#x440; 6922" d="M93.648,110.312a1.16,1.16,0,0,0-2.145.882,16.861,16.861,0,0,1,1.267,6.445,30.373,30.373,0,0,1-6.254,18.113c-3.406,4.481-7.608,7.376-10.7,7.376-1.892,0-4.356-1.161-6.759-3.184a28.793,28.793,0,0,1-6.5-8.165,39.614,39.614,0,0,0,2.811-5.395,1.16,1.16,0,0,0-2.134-.909c-4.4,10.323-12.459,16.713-17.406,16.713-3.722,0-8.755-3.455-12.82-8.8a36.115,36.115,0,0,1-7.437-21.539A20.354,20.354,0,0,1,26.149,107a1.16,1.16,0,1,0-2.252-.553,22.674,22.674,0,0,0-.65,5.4,38.452,38.452,0,0,0,7.91,22.943,28.866,28.866,0,0,0,9.183,8.186l-1.549,4.039a2.665,2.665,0,0,0,2.472,3.595h3.4V167.13a1.16,1.16,0,0,0,2.32,0V150.609h3.4a2.665,2.665,0,0,0,2.471-3.6l-1.547-4.035a29.728,29.728,0,0,0,9.8-9.045c2.7,4.581,6.321,8.237,9.846,10.119L69.7,147.325a2.434,2.434,0,0,0,2.257,3.284h2.7V167.13a1.16,1.16,0,0,0,2.32,0V150.609h2.7a2.434,2.434,0,0,0,2.258-3.284l-1.255-3.271a24.763,24.763,0,0,0,7.688-6.9,32.708,32.708,0,0,0,6.728-19.517,19.171,19.171,0,0,0-1.441-7.327Zm-43,37.836a.32.32,0,0,1-.27.142H41.261c-.271-.04-.366-.177-.306-.445l1.514-3.947a9.554,9.554,0,0,0,6.706,0l1.512,3.942A.32.32,0,0,1,50.652,148.148Zm29.1.1a.09.09,0,0,1-.081.043H71.955a.1.1,0,0,1-.092-.134l1.22-3.18a8.132,8.132,0,0,0,5.46,0l1.22,3.18A.091.091,0,0,1,79.751,148.247Z" transform="translate(-23.246 -89.271)"></path><path id="&#x41A;&#x43E;&#x43D;&#x442;&#x443;&#x440;_6923" data-name="&#x41A;&#x43E;&#x43D;&#x442;&#x443;&#x440; 6923" d="M38.194,14.135a1.16,1.16,0,0,0,1.554-.526,20.259,20.259,0,0,1,38.425,8.967,34.027,34.027,0,0,1-1.345,9.393,1.16,1.16,0,0,0,2.229.641,36.346,36.346,0,0,0,1.435-10.034,22.454,22.454,0,0,0-1.672-8.523,16.956,16.956,0,0,1,22.623,4.1,1.16,1.16,0,0,0,1.85-1.4,19.278,19.278,0,0,0-25.469-4.814,22.576,22.576,0,0,0-40.155.642,1.16,1.16,0,0,0,.526,1.554Z" transform="translate(-35.34)"></path><path id="&#x41A;&#x43E;&#x43D;&#x442;&#x443;&#x440;_6924" data-name="&#x41A;&#x43E;&#x43D;&#x442;&#x443;&#x440; 6924" d="M108.638,143.95v2.719a1.16,1.16,0,0,0,2.32,0V143.95a1.16,1.16,0,0,0-2.32,0Z" transform="translate(-95.459 -120.753)"></path><path id="&#x41A;&#x43E;&#x43D;&#x442;&#x443;&#x440;_6925" data-name="&#x41A;&#x43E;&#x43D;&#x442;&#x443;&#x440; 6925" d="M215.382,143.95v2.719a1.16,1.16,0,0,0,2.32,0V143.95a1.16,1.16,0,0,0-2.32,0Z" transform="translate(-185.729 -120.753)"></path><path id="&#x41A;&#x43E;&#x43D;&#x442;&#x443;&#x440;_6926" data-name="&#x41A;&#x43E;&#x43D;&#x442;&#x443;&#x440; 6926" d="M138.7,202.577a4.125,4.125,0,0,1-8.129,0,1.16,1.16,0,0,0-2.286.394,6.445,6.445,0,0,0,12.7,0,1.16,1.16,0,1,0-2.286-.394Z" transform="translate(-112.058 -170.498)"></path></g></svg>