<svg xmlns="http://www.w3.org/2000/svg" id="dove" width="82.998" height="71.659" viewBox="0 0 82.998 71.659"><g id="&#x421;&#x433;&#x440;&#x443;&#x43F;&#x43F;&#x438;&#x440;&#x43E;&#x432;&#x430;&#x442;&#x44C;_9035" data-name="&#x421;&#x433;&#x440;&#x443;&#x43F;&#x43F;&#x438;&#x440;&#x43E;&#x432;&#x430;&#x442;&#x44C; 9035" transform="translate(1.296 0.743)"><path id="&#x41A;&#x43E;&#x43D;&#x442;&#x443;&#x440;_6927" data-name="&#x41A;&#x43E;&#x43D;&#x442;&#x443;&#x440; 6927" d="M30.542,152.609A69.457,69.457,0,0,1,10.1,156.224a2.123,2.123,0,0,0-2.046,2.58,29.544,29.544,0,0,0,8.679,14.79,2.317,2.317,0,0,0,2.985.17l10.827-8.12a26.232,26.232,0,0,0,20.581-2.916c11.86-7.233,13.369-18.918,15.829-22.472,2.294-3.312,11.144-4.583,11.144-4.583a44.34,44.34,0,0,0-5.706-4.5c-1.359-.809-1.944-5.545-7.775-5.6-7.489-.073-14.864,11.2-14.864,11.2s-16.664-3.513-31.3-18.757a2.644,2.644,0,0,0-4.53,1.511c-1.1,9.069-.822,26.813,16.623,33.088Z" transform="translate(-8 -104.597)" fill="#edf4fa"></path><g id="&#x421;&#x433;&#x440;&#x443;&#x43F;&#x43F;&#x438;&#x440;&#x43E;&#x432;&#x430;&#x442;&#x44C;_9034" data-name="&#x421;&#x433;&#x440;&#x443;&#x43F;&#x43F;&#x438;&#x440;&#x43E;&#x432;&#x430;&#x442;&#x44C; 9034" transform="translate(7.794 28.448)"><path id="&#x41A;&#x43E;&#x43D;&#x442;&#x443;&#x440;_6928" data-name="&#x41A;&#x43E;&#x43D;&#x442;&#x443;&#x440; 6928" d="M115.342,215.025c-2.662.539-7.855,1.87-9.534,4.295-2.461,3.554-3.97,15.238-15.829,22.472A26.232,26.232,0,0,1,69.4,244.707l-13.29,9.939c.3.31.612.619.937.927a2.317,2.317,0,0,0,2.985.17l10.827-8.12a26.232,26.232,0,0,0,20.581-2.916c11.86-7.233,13.369-18.918,15.829-22.472,2.294-3.312,11.144-4.583,11.144-4.583S116.994,216.336,115.342,215.025Z" transform="translate(-56.107 -215.025)" fill="#d8e5ef"></path></g><path id="&#x41A;&#x43E;&#x43D;&#x442;&#x443;&#x440;_6929" data-name="&#x41A;&#x43E;&#x43D;&#x442;&#x443;&#x440; 6929" d="M170.627,117.04a39.168,39.168,0,0,1,6.791-7.622c-9.783-3.414-16.745-10.469-20.363-14.9a2.348,2.348,0,0,0-4.129,1.052,42.238,42.238,0,0,0-.251,13.566A61.388,61.388,0,0,0,170.627,117.04Z" transform="translate(-128.875 -84.871)" fill="#c3d0d8"></path><path id="&#x41A;&#x43E;&#x43D;&#x442;&#x443;&#x440;_6930" data-name="&#x41A;&#x43E;&#x43D;&#x442;&#x443;&#x440; 6930" d="M174.843,172.008a41.778,41.778,0,0,0-4.142,5,.809.809,0,0,1-.86.321,63.442,63.442,0,0,1-16.959-7.493c.076,1.1.189,2.157.326,3.143a61.381,61.381,0,0,0,17.952,7.9,39.167,39.167,0,0,1,6.791-7.622C176.881,172.881,175.845,172.461,174.843,172.008Z" transform="translate(-129.409 -148.707)" fill="#b0c2cc"></path><ellipse id="&#x42D;&#x43B;&#x43B;&#x438;&#x43F;&#x441;_430" data-name="&#x42D;&#x43B;&#x43B;&#x438;&#x43F;&#x441; 430" cx="3.099" cy="5.264" rx="3.099" ry="5.264" transform="translate(64.787 1.14) rotate(-10.602)" fill="#febd55"></ellipse><path id="&#x41A;&#x43E;&#x43D;&#x442;&#x443;&#x440;_6931" data-name="&#x41A;&#x43E;&#x43D;&#x442;&#x443;&#x440; 6931" d="M417.062,64.547c-1.682.315-3.48-1.747-4.014-4.6-.006-.032-.011-.064-.016-.1a8.028,8.028,0,0,0,.016,3.012c.535,2.858,2.332,4.919,4.014,4.6,1.664-.311,2.591-2.829,2.094-5.649C418.864,63.282,418.109,64.351,417.062,64.547Z" transform="translate(-347.297 -56.54)" fill="#f9ab43"></path><ellipse id="&#x42D;&#x43B;&#x43B;&#x438;&#x43F;&#x441;_431" data-name="&#x42D;&#x43B;&#x43B;&#x438;&#x43F;&#x441; 431" cx="5.15" cy="3.032" rx="5.15" ry="3.032" transform="translate(69.284 17.426) rotate(-40.663)" fill="#febd55"></ellipse><path id="&#x41A;&#x43E;&#x43D;&#x442;&#x443;&#x440;_6932" data-name="&#x41A;&#x43E;&#x43D;&#x442;&#x443;&#x440; 6932" d="M451.058,123.275c-2.158,1.853-4.791,2.325-5.882,1.055-.031-.036-.06-.074-.088-.111a2.846,2.846,0,0,0,.088,3.028c1.091,1.27,3.724.8,5.882-1.055,2.1-1.8,2.972-4.241,2.02-5.544A7.613,7.613,0,0,1,451.058,123.275Z" transform="translate(-373.951 -107.49)" fill="#f9ab43"></path><ellipse id="&#x42D;&#x43B;&#x43B;&#x438;&#x43F;&#x441;_432" data-name="&#x42D;&#x43B;&#x43B;&#x438;&#x43F;&#x441; 432" cx="5.719" cy="3.032" rx="5.719" ry="3.032" transform="translate(68.816 29.133) rotate(-33.245)" fill="#febd55"></ellipse><path id="&#x41A;&#x43E;&#x43D;&#x442;&#x443;&#x440;_6933" data-name="&#x41A;&#x43E;&#x43D;&#x442;&#x443;&#x440; 6933" d="M451.119,194.712a8.777,8.777,0,0,1-2.92,3c-2.471,1.619-5.155,1.958-6.243.849a2.615,2.615,0,0,0-.2,2.666c.918,1.4,3.8,1.132,6.445-.6s4.04-4.27,3.122-5.67A1.641,1.641,0,0,0,451.119,194.712Z" transform="translate(-371.243 -169.555)" fill="#f9ab43"></path><ellipse id="&#x42D;&#x43B;&#x43B;&#x438;&#x43F;&#x441;_433" data-name="&#x42D;&#x43B;&#x43B;&#x438;&#x43F;&#x441; 433" cx="3.032" cy="5.15" rx="3.032" ry="5.15" transform="matrix(0.542, -0.84, 0.84, 0.542, 60.141, 16.837)" fill="#febd55"></ellipse><path id="&#x41A;&#x43E;&#x43D;&#x442;&#x443;&#x440;_6934" data-name="&#x41A;&#x43E;&#x43D;&#x442;&#x443;&#x440; 6934" d="M390.525,128.865A7.374,7.374,0,0,1,388,126.238a1.817,1.817,0,0,0-.155.2c-.908,1.407.294,3.8,2.684,5.339s5.063,1.651,5.971.244a2.677,2.677,0,0,0-.155-2.712C395.313,130.5,392.793,130.327,390.525,128.865Z" transform="translate(-326.047 -112.175)" fill="#f9ab43"></path></g><g id="&#x421;&#x433;&#x440;&#x443;&#x43F;&#x43F;&#x438;&#x440;&#x43E;&#x432;&#x430;&#x442;&#x44C;_9036" data-name="&#x421;&#x433;&#x440;&#x443;&#x43F;&#x43F;&#x438;&#x440;&#x43E;&#x432;&#x430;&#x442;&#x44C; 9036" transform="translate(0 0)"><path id="&#x41A;&#x43E;&#x43D;&#x442;&#x443;&#x440;_6935" data-name="&#x41A;&#x43E;&#x43D;&#x442;&#x443;&#x440; 6935" d="M37.6,320.373a25.029,25.029,0,0,1-13.412.094,1.218,1.218,0,0,0-1.119.18l-10.847,8.136A1.1,1.1,0,0,1,10.8,328.7a28.491,28.491,0,0,1-8.346-14.2.9.9,0,0,1,.883-1.1,70.141,70.141,0,0,0,20.883-3.7,1.225,1.225,0,0,0-.008-2.288,25.113,25.113,0,0,1-7.117-3.881,1.217,1.217,0,1,0-1.511,1.909,26.16,26.16,0,0,0,4.686,2.943A69.249,69.249,0,0,1,3.3,310.966a3.348,3.348,0,0,0-2.586,1.282,3.315,3.315,0,0,0-.632,2.788,30.952,30.952,0,0,0,9.045,15.434,3.529,3.529,0,0,0,4.559.262l10.36-7.77a27.608,27.608,0,0,0,14.223-.245,1.217,1.217,0,0,0-.665-2.342Z" transform="translate(0.001 -259.784)"></path><path id="&#x41A;&#x43E;&#x43D;&#x442;&#x443;&#x440;_6936" data-name="&#x41A;&#x43E;&#x43D;&#x442;&#x443;&#x440; 6936" d="M352.909,195.872V194.21a1.218,1.218,0,0,0-2.435,0v1.661a1.218,1.218,0,0,0,2.435,0Z" transform="translate(-293.691 -167.372)"></path><path id="&#x41A;&#x43E;&#x43D;&#x442;&#x443;&#x440;_6937" data-name="&#x41A;&#x43E;&#x43D;&#x442;&#x443;&#x440; 6937" d="M111.234,60.314c-1.33-2.029-4.831-1.922-8.143.249q-.487.319-.92.665.085-1.337.092-2.736,0-.678-.012-1.335a4.377,4.377,0,0,0,.908.093,5.372,5.372,0,0,0,.947-.087,9.13,9.13,0,0,0,6.473-5.559,3.816,3.816,0,0,0-.481-3.8c-1.555-1.81-4.9-1.4-7.61.927a9.891,9.891,0,0,0-.914.894c-.153-.975-.306-1.778-.426-2.359,1.713-1.045,2.578-3.758,2.014-6.775a8.691,8.691,0,0,0-1.859-4.075,3.527,3.527,0,0,0-6.379,1.194,8.693,8.693,0,0,0-.26,4.471c.54,2.883,2.2,5.036,4.065,5.53.091.441.209,1.049.333,1.793q-.254-.188-.524-.363c-3.005-1.938-6.372-1.886-7.666.119s.048,5.094,3.053,7.032a8.529,8.529,0,0,0,4.159,1.423c.08,0,.158,0,.236,0a4.79,4.79,0,0,0,1.489-.224,42.114,42.114,0,0,1-.412,6.913,34.639,34.639,0,0,0-4.266-3.2,5.573,5.573,0,0,1-.681-1c-1.062-1.774-2.84-4.742-7.73-4.79C84.1,55.288,81.3,56.44,78.384,58.74A41.144,41.144,0,0,1,67.448,52.55a1.218,1.218,0,1,0-1.5,1.922,44.156,44.156,0,0,0,10.359,6.072q-.364.347-.731.717a42.8,42.8,0,0,0-4.292,5.111A63.578,63.578,0,0,1,54.959,59.1a40.722,40.722,0,0,1,.317-12.628,1.122,1.122,0,0,1,2-.507,55.86,55.86,0,0,0,4.894,5.256,1.218,1.218,0,0,0,1.671-1.771,53.467,53.467,0,0,1-4.68-5.026,3.57,3.57,0,0,0-6.277,1.6A42.654,42.654,0,0,0,52.332,57.4a69.005,69.005,0,0,1-11-9.279A3.867,3.867,0,0,0,34.7,50.33,47.462,47.462,0,0,0,34.8,62.947a28.426,28.426,0,0,0,5.894,13.974,1.218,1.218,0,1,0,1.882-1.546c-6.415-7.809-6.169-18.859-5.452-24.751a1.439,1.439,0,0,1,2.452-.818A72.542,72.542,0,0,0,61.12,65.191a53.56,53.56,0,0,0,10.443,3.756,1.219,1.219,0,0,0,1.27-.524,39.879,39.879,0,0,1,4.508-5.478c2.355-2.374,5.872-5.193,9.294-5.193H86.7c3.526.035,4.712,2.015,5.665,3.606a4.908,4.908,0,0,0,1.514,1.836,30.833,30.833,0,0,1,3.658,2.728c-2.988.662-7.71,2.074-9.485,4.637a23,23,0,0,0-2.024,4.361c-1.98,5.028-4.972,12.625-13.469,17.808-.606.37-1.233.717-1.862,1.032a1.217,1.217,0,1,0,1.09,2.177c.689-.345,1.375-.725,2.039-1.13,9.2-5.609,12.368-13.664,14.467-18.994a22.4,22.4,0,0,1,1.76-3.867c.765-1.105,2.811-2.191,5.759-3.057,1.009-.3,1.976-.524,2.759-.688a19.672,19.672,0,0,1-5.258,9.119,1.218,1.218,0,0,0,1.669,1.773A22.093,22.093,0,0,0,100.864,69a4.445,4.445,0,0,0,1.891.383,9.457,9.457,0,0,0,5-1.7h0c3.314-2.171,4.809-5.338,3.48-7.367Zm-8.99-7.216a6.168,6.168,0,0,1,1.829-2.522,5.462,5.462,0,0,1,3.295-1.478,1.152,1.152,0,0,1,.882.291,1.549,1.549,0,0,1,.024,1.427,6.727,6.727,0,0,1-4.6,3.949,1.118,1.118,0,0,1-1.432-1.667Zm-2.7,1.655a1.55,1.55,0,0,1-1.361.429,6.166,6.166,0,0,1-2.938-1.037c-2.022-1.3-2.729-3.043-2.326-3.666a1.444,1.444,0,0,1,1.225-.434,5.912,5.912,0,0,1,3.075,1.041,6.166,6.166,0,0,1,2.156,2.249A1.55,1.55,0,0,1,99.545,54.753ZM97.057,41.632a6.331,6.331,0,0,1,.156-3.195c.234-.646.59-1.072.953-1.14a.626.626,0,0,1,.115-.01,1.793,1.793,0,0,1,1.185.728,6.331,6.331,0,0,1,1.3,2.922c.456,2.434-.353,4.193-1.109,4.335s-2.146-1.206-2.6-3.64Zm9.363,24.013c-2.269,1.487-4.375,1.557-4.772.951s.508-2.509,2.777-4a7.2,7.2,0,0,1,3.7-1.308,1.281,1.281,0,0,1,1.074.357C109.594,62.255,108.689,64.157,106.42,65.644Z" transform="translate(-28.765 -34.852)"></path></g></svg>