<svg xmlns="http://www.w3.org/2000/svg" id="receive" width="79.018" height="79.019" viewBox="0 0 79.018 79.019"><g id="&#x421;&#x433;&#x440;&#x443;&#x43F;&#x43F;&#x438;&#x440;&#x43E;&#x432;&#x430;&#x442;&#x44C;_9041" data-name="&#x421;&#x433;&#x440;&#x443;&#x43F;&#x43F;&#x438;&#x440;&#x43E;&#x432;&#x430;&#x442;&#x44C; 9041" transform="translate(1.235 1.235)"><g id="&#x421;&#x433;&#x440;&#x443;&#x43F;&#x43F;&#x438;&#x440;&#x43E;&#x432;&#x430;&#x442;&#x44C;_9039" data-name="&#x421;&#x433;&#x440;&#x443;&#x43F;&#x43F;&#x438;&#x440;&#x43E;&#x432;&#x430;&#x442;&#x44C; 9039" transform="translate(0 23.443)"><path id="&#x41A;&#x43E;&#x43D;&#x442;&#x443;&#x440;_6938" data-name="&#x41A;&#x43E;&#x43D;&#x442;&#x443;&#x440; 6938" d="M42.224,195.862c-.632-7.279-8.671-10.968-8.671-10.968l-6.64-7.636a3.532,3.532,0,0,0-6.115,3.076h0l-4.921-17.508A4.012,4.012,0,0,0,8.1,164.8l3.841,16.917a24.391,24.391,0,0,0,3.147,7.6L22.3,200.766a12.012,12.012,0,0,1,1.848,6.4V213H39.525V207.74a10.721,10.721,0,0,1,1.23-5A12.538,12.538,0,0,0,42.224,195.862Z" transform="translate(-8 -159.897)" fill="#ffd6bd"></path><g id="&#x421;&#x433;&#x440;&#x443;&#x43F;&#x43F;&#x438;&#x440;&#x43E;&#x432;&#x430;&#x442;&#x44C;_9037" data-name="&#x421;&#x433;&#x440;&#x443;&#x43F;&#x43F;&#x438;&#x440;&#x43E;&#x432;&#x430;&#x442;&#x44C; 9037" transform="translate(0 0.01)"><path id="&#x41A;&#x43E;&#x43D;&#x442;&#x443;&#x440;_6939" data-name="&#x41A;&#x43E;&#x43D;&#x442;&#x443;&#x440; 6939" d="M26.927,213.061v-7.224a12.013,12.013,0,0,0-1.848-6.4l-7.213-11.453a24.387,24.387,0,0,1-3.147-7.6l-3.841-16.917a4.006,4.006,0,0,1,.869-3.5A4.009,4.009,0,0,0,8.1,164.856l3.841,16.917a24.391,24.391,0,0,0,3.147,7.6L22.3,200.824a12.012,12.012,0,0,1,1.848,6.4v5.835Z" transform="translate(-8 -159.965)" fill="#f9c6aa"></path></g><path id="&#x41A;&#x43E;&#x43D;&#x442;&#x443;&#x440;_6940" data-name="&#x41A;&#x43E;&#x43D;&#x442;&#x443;&#x440; 6940" d="M73.65,188.506h0a3.53,3.53,0,0,1,3.394-4.289V172.836a3.273,3.273,0,0,0-6.546,0v4.459Z" transform="translate(-60.853 -168.071)" fill="#edbca4"></path><path id="&#x41A;&#x43E;&#x43D;&#x442;&#x443;&#x440;_6941" data-name="&#x41A;&#x43E;&#x43D;&#x442;&#x443;&#x440; 6941" d="M73.65,188.506h0a3.53,3.53,0,0,1,3.394-4.289V172.836a3.273,3.273,0,0,0-6.546,0v4.459Z" transform="translate(-60.853 -168.071)" fill="#edbca4"></path><path id="&#x41A;&#x43E;&#x43D;&#x442;&#x443;&#x440;_6942" data-name="&#x41A;&#x43E;&#x43D;&#x442;&#x443;&#x440; 6942" d="M92.928,270.451a3.519,3.519,0,0,1-.8-2.748,3.517,3.517,0,0,0-.9,5.324l6.316,7.457a2.854,2.854,0,0,0,.424-4.1Z" transform="translate(-77.671 -251.065)" fill="#f9c6aa"></path><path id="&#x41A;&#x43E;&#x43D;&#x442;&#x443;&#x440;_6943" data-name="&#x41A;&#x43E;&#x43D;&#x442;&#x443;&#x440; 6943" d="M73.65,188.506h0a3.53,3.53,0,0,1,3.394-4.289V172.836a3.273,3.273,0,0,0-6.546,0v4.459Z" transform="translate(-60.853 -168.071)" fill="#edbca4"></path><path id="&#x41A;&#x43E;&#x43D;&#x442;&#x443;&#x440;_6944" data-name="&#x41A;&#x43E;&#x43D;&#x442;&#x443;&#x440; 6944" d="M73.65,188.506h0a3.53,3.53,0,0,1,3.394-4.289V172.836a3.273,3.273,0,0,0-6.546,0v4.459Z" transform="translate(-60.853 -168.071)" fill="#edbca4"></path><path id="&#x41A;&#x43E;&#x43D;&#x442;&#x443;&#x440;_6945" data-name="&#x41A;&#x43E;&#x43D;&#x442;&#x443;&#x440; 6945" d="M77.044,189.4a5.853,5.853,0,0,0-1.895.334.772.772,0,0,1-1-.517l-3.033-10.791a3.255,3.255,0,0,0-.616,1.906v4.459L73.648,196h0a3.53,3.53,0,0,1,3.394-4.289Z" transform="translate(-60.852 -175.563)" fill="#eaab92"></path><path id="&#x41A;&#x43E;&#x43D;&#x442;&#x443;&#x440;_6946" data-name="&#x41A;&#x43E;&#x43D;&#x442;&#x443;&#x440; 6946" d="M313.158,160.009a4.012,4.012,0,0,0-4.8,2.816l-4.921,17.508h0a3.532,3.532,0,0,0-6.115-3.076l-6.64,7.636s-8.04,3.69-8.671,10.968a12.536,12.536,0,0,0,1.469,6.883,10.721,10.721,0,0,1,1.23,5V213h15.376v-5.835a12.012,12.012,0,0,1,1.848-6.4l7.213-11.453a24.387,24.387,0,0,0,3.147-7.6l3.841-16.917A4.013,4.013,0,0,0,313.158,160.009Z" transform="translate(-239.687 -159.898)" fill="#ffd6bd"></path><g id="&#x421;&#x433;&#x440;&#x443;&#x43F;&#x43F;&#x438;&#x440;&#x43E;&#x432;&#x430;&#x442;&#x44C;_9038" data-name="&#x421;&#x433;&#x440;&#x443;&#x43F;&#x43F;&#x438;&#x440;&#x43E;&#x432;&#x430;&#x442;&#x44C; 9038" transform="translate(57.622 0.01)"><path id="&#x41A;&#x43E;&#x43D;&#x442;&#x443;&#x440;_6947" data-name="&#x41A;&#x43E;&#x43D;&#x442;&#x443;&#x440; 6947" d="M381.363,213.061v-7.224a12.012,12.012,0,0,1,1.848-6.4l7.213-11.453a24.391,24.391,0,0,0,3.147-7.6l3.841-16.917a4.006,4.006,0,0,0-.869-3.5,4.009,4.009,0,0,1,3.648,4.891l-3.841,16.917a24.39,24.39,0,0,1-3.147,7.6l-7.213,11.453a12.012,12.012,0,0,0-1.848,6.4v5.835Z" transform="translate(-381.363 -159.965)" fill="#f9c6aa"></path></g><path id="&#x41A;&#x43E;&#x43D;&#x442;&#x443;&#x440;_6948" data-name="&#x41A;&#x43E;&#x43D;&#x442;&#x443;&#x440; 6948" d="M402.478,188.506h0a3.53,3.53,0,0,0-3.394-4.289V172.836a3.273,3.273,0,1,1,6.546,0v4.459Z" transform="translate(-338.726 -168.071)" fill="#edbca4"></path><path id="&#x41A;&#x43E;&#x43D;&#x442;&#x443;&#x440;_6949" data-name="&#x41A;&#x43E;&#x43D;&#x442;&#x443;&#x440; 6949" d="M402.478,188.506h0a3.53,3.53,0,0,0-3.394-4.289V172.836a3.273,3.273,0,1,1,6.546,0v4.459Z" transform="translate(-338.726 -168.071)" fill="#edbca4"></path><path id="&#x41A;&#x43E;&#x43D;&#x442;&#x443;&#x440;_6950" data-name="&#x41A;&#x43E;&#x43D;&#x442;&#x443;&#x440; 6950" d="M373.844,270.451a3.52,3.52,0,0,0,.8-2.748,3.517,3.517,0,0,1,.9,5.324l-6.316,7.457a2.854,2.854,0,0,1-.424-4.1Z" transform="translate(-312.552 -251.065)" fill="#f9c6aa"></path><path id="&#x41A;&#x43E;&#x43D;&#x442;&#x443;&#x440;_6951" data-name="&#x41A;&#x43E;&#x43D;&#x442;&#x443;&#x440; 6951" d="M402.478,188.506h0a3.53,3.53,0,0,0-3.394-4.289V172.836a3.273,3.273,0,1,1,6.546,0v4.459Z" transform="translate(-338.726 -168.071)" fill="#edbca4"></path><path id="&#x41A;&#x43E;&#x43D;&#x442;&#x443;&#x440;_6952" data-name="&#x41A;&#x43E;&#x43D;&#x442;&#x443;&#x440; 6952" d="M402.478,188.506h0a3.53,3.53,0,0,0-3.394-4.289V172.836a3.273,3.273,0,1,1,6.546,0v4.459Z" transform="translate(-338.726 -168.071)" fill="#edbca4"></path><path id="&#x41A;&#x43E;&#x43D;&#x442;&#x443;&#x440;_6953" data-name="&#x41A;&#x43E;&#x43D;&#x442;&#x443;&#x440; 6953" d="M399.084,189.4a5.852,5.852,0,0,1,1.895.334.772.772,0,0,0,1-.517l3.033-10.791a3.255,3.255,0,0,1,.616,1.906v4.459L402.48,196h0a3.53,3.53,0,0,0-3.394-4.289V189.4Z" transform="translate(-338.727 -175.563)" fill="#eaab92"></path></g><g id="&#x421;&#x433;&#x440;&#x443;&#x43F;&#x43F;&#x438;&#x440;&#x43E;&#x432;&#x430;&#x442;&#x44C;_9040" data-name="&#x421;&#x433;&#x440;&#x443;&#x43F;&#x43F;&#x438;&#x440;&#x43E;&#x432;&#x430;&#x442;&#x44C; 9040" transform="translate(16.663)"><path id="&#x41A;&#x43E;&#x43D;&#x442;&#x443;&#x440;_6954" data-name="&#x41A;&#x43E;&#x43D;&#x442;&#x443;&#x440; 6954" d="M137.578,14.413c-2.664-8.5-19.562-9.879-21.471,4.076-2.171,15.871,21.471,27.366,21.471,27.366S161.22,34.36,159.049,18.489c-1.909-13.954-18.807-12.576-21.471-4.075Z" transform="translate(-115.966 -8)" fill="#da4a54"></path></g><path id="&#x41A;&#x43E;&#x43D;&#x442;&#x443;&#x440;_6955" data-name="&#x41A;&#x43E;&#x43D;&#x442;&#x443;&#x440; 6955" d="M137.229,104.072c-2.7-1.386-20.015-10.774-21.2-23.735-1.425,15.521,21.548,26.691,21.548,26.691s22.973-11.17,21.548-26.691c-1.181,12.961-18.5,22.349-21.2,23.735A.767.767,0,0,1,137.229,104.072Z" transform="translate(-99.306 -69.173)" fill="#d82e3d"></path></g><g id="&#x421;&#x433;&#x440;&#x443;&#x43F;&#x43F;&#x438;&#x440;&#x43E;&#x432;&#x430;&#x442;&#x44C;_9042" data-name="&#x421;&#x433;&#x440;&#x443;&#x43F;&#x43F;&#x438;&#x440;&#x43E;&#x432;&#x430;&#x442;&#x44C; 9042" transform="translate(0 0)"><path id="&#x41A;&#x43E;&#x43D;&#x442;&#x443;&#x440;_6956" data-name="&#x41A;&#x43E;&#x43D;&#x442;&#x443;&#x440; 6956" d="M31.634,180.279a20.692,20.692,0,0,0-4.151-2.827l-6.5-7.473a4.667,4.667,0,0,0-2.441-1.478V158.12a4.439,4.439,0,0,0-8.357-2.087l-.019-.068A5.18,5.18,0,0,0,.129,158.514l3.848,16.95a25.53,25.53,0,0,0,3.3,7.974l3.288,5.22a1.16,1.16,0,0,0,1.963-1.236L9.242,182.2a23.217,23.217,0,0,1-3-7.251L2.391,158a2.86,2.86,0,0,1,5.543-1.407l4.93,17.542.006.019a4.661,4.661,0,0,0,.982,1.946l6.328,7.471a1.16,1.16,0,0,0,1.77-1.5L15.623,174.6a2.38,2.38,0,0,1,3.611-3.1l6.653,7.651a1.169,1.169,0,0,0,.39.292c.075.034,7.453,3.518,8.019,10.037a11.427,11.427,0,0,1-1.343,6.256,11.949,11.949,0,0,0-1.366,5.545V205.4H18.5v-4.687a13.179,13.179,0,0,0-2.03-7.032L15,191.348a1.16,1.16,0,0,0-1.963,1.236l1.467,2.329a10.863,10.863,0,0,1,1.673,5.8v5.847a1.16,1.16,0,0,0,1.16,1.16H32.746a1.16,1.16,0,0,0,1.16-1.16v-5.274a9.618,9.618,0,0,1,1.1-4.465,12.887,12.887,0,0,0-3.371-16.538Zm-17.25-10.787c-.116.1-.225.2-.328.31l-2.073-7.374v-4.307a2.12,2.12,0,0,1,4.24,0v10.406A4.656,4.656,0,0,0,14.384,169.492Z" transform="translate(-0.001 -128.698)"></path><path id="&#x41A;&#x43E;&#x43D;&#x442;&#x443;&#x440;_6957" data-name="&#x41A;&#x43E;&#x43D;&#x442;&#x443;&#x440; 6957" d="M307.188,152.329a5.164,5.164,0,0,0-6.194,3.636l-.019.068a4.439,4.439,0,0,0-8.357,2.087V168.5a4.666,4.666,0,0,0-2.441,1.478l-6.5,7.472a20.678,20.678,0,0,0-4.151,2.827,12.887,12.887,0,0,0-3.371,16.538,9.618,9.618,0,0,1,1.1,4.465v5.274a1.16,1.16,0,0,0,1.16,1.16h15.407a1.16,1.16,0,0,0,1.16-1.16v-5.847a10.862,10.862,0,0,1,1.673-5.8l7.228-11.475a25.531,25.531,0,0,0,3.3-7.974l.787-3.467a1.16,1.16,0,0,0-2.262-.514l-.787,3.467a23.215,23.215,0,0,1-3,7.251l-7.228,11.475a13.179,13.179,0,0,0-2.03,7.032V205.4H279.575v-4.114a11.948,11.948,0,0,0-1.366-5.545,11.425,11.425,0,0,1-1.343-6.256c.566-6.518,7.944-10,8.017-10.036a1.157,1.157,0,0,0,.391-.293l6.653-7.651a2.38,2.38,0,0,1,3.612,3.1l-6.328,7.471a1.16,1.16,0,1,0,1.77,1.5l6.328-7.471a4.661,4.661,0,0,0,.983-1.951s0-.009.005-.014l4.93-17.542A2.861,2.861,0,0,1,308.771,158l-2.034,8.957a1.16,1.16,0,0,0,2.262.514l2.034-8.957A5.2,5.2,0,0,0,307.188,152.329Zm-12.25,16.2V158.12a2.12,2.12,0,0,1,4.24,0v4.307l-2.073,7.374A4.676,4.676,0,0,0,294.938,168.526Z" transform="translate(-232.143 -128.697)"></path><path id="&#x41A;&#x43E;&#x43D;&#x442;&#x443;&#x440;_6958" data-name="&#x41A;&#x43E;&#x43D;&#x442;&#x443;&#x440; 6958" d="M151.065,23.242a18.2,18.2,0,0,0,2.588-11.73,13.6,13.6,0,0,0-4.094-8.373A12.153,12.153,0,0,0,142.3.048a13.574,13.574,0,0,0-7.574,1.56,10.562,10.562,0,0,0-3.732,3.338,10.563,10.563,0,0,0-3.732-3.338,13.576,13.576,0,0,0-7.574-1.56,12.152,12.152,0,0,0-7.263,3.091,13.6,13.6,0,0,0-4.094,8.373,16.568,16.568,0,0,0,.1,5.109,1.16,1.16,0,0,0,2.285-.4,14.247,14.247,0,0,1-.088-4.395c.753-5.5,4.212-9.043,9.253-9.467,4.586-.385,8.889,2.01,10.005,5.573a1.167,1.167,0,0,0,2.213,0c1.116-3.563,5.417-5.959,10.005-5.573,5.041.424,8.5,3.963,9.253,9.467a15.938,15.938,0,0,1-2.287,10.236,33.382,33.382,0,0,1-7.226,8.371,60.613,60.613,0,0,1-10.851,7.353c-2.62-1.374-14.656-8.082-18.959-17.422a1.16,1.16,0,0,0-2.107.97c2.179,4.73,6.307,9.334,12.27,13.684a60.25,60.25,0,0,0,8.288,5.113,1.159,1.159,0,0,0,1.014,0,61.136,61.136,0,0,0,11.823-7.911,35.747,35.747,0,0,0,7.745-8.979Z" transform="translate(-91.481 0)"></path></g></svg>