<svg xmlns="http://www.w3.org/2000/svg" id="red-ribbon" width="46.048" height="79.018" viewBox="0 0 46.048 79.018"><g id="&#x421;&#x433;&#x440;&#x443;&#x43F;&#x43F;&#x438;&#x440;&#x43E;&#x432;&#x430;&#x442;&#x44C;_9044" data-name="&#x421;&#x433;&#x440;&#x443;&#x43F;&#x43F;&#x438;&#x440;&#x43E;&#x432;&#x430;&#x442;&#x44C; 9044" transform="translate(1.204 1.235)"><path id="&#x41A;&#x43E;&#x43D;&#x442;&#x443;&#x440;_6959" data-name="&#x41A;&#x43E;&#x43D;&#x442;&#x443;&#x440; 6959" d="M167.912,34.785a30.948,30.948,0,0,1-.047-9.086c-4.351,3.268-7.2,9.594-5.8,19.659,2.115,15.214,18.166,40.387,30.163,54.159l5.851-10.572C186.078,75.172,170.027,50,167.912,34.785Z" transform="translate(-154.435 -22.967)" fill="#c32430"></path><g id="&#x421;&#x433;&#x440;&#x443;&#x43F;&#x43F;&#x438;&#x440;&#x43E;&#x432;&#x430;&#x442;&#x44C;_9043" data-name="&#x421;&#x433;&#x440;&#x443;&#x43F;&#x43F;&#x438;&#x440;&#x43E;&#x432;&#x430;&#x442;&#x44C; 9043" transform="translate(7.267)"><path id="&#x41A;&#x43E;&#x43D;&#x442;&#x443;&#x440;_6960" data-name="&#x41A;&#x43E;&#x43D;&#x442;&#x443;&#x440; 6960" d="M223.825,226.3q-1.57-2.426-3.072-4.91h0c-2.12-3.508-4.107-7.067-5.86-10.556-1.753,3.489-3.74,7.047-5.86,10.556.854,1.7,1.764,3.417,2.718,5.137h0q1.522,2.738,3.142,5.421h0q1.445,2.393,2.963,4.743C219.989,233.262,222.01,229.761,223.825,226.3Z" transform="translate(-201.729 -179.533)" fill="#a71f29"></path><path id="&#x41A;&#x43E;&#x43D;&#x442;&#x443;&#x440;_6961" data-name="&#x41A;&#x43E;&#x43D;&#x442;&#x443;&#x440; 6961" d="M164.491,49.609c-1.305,3.369-1.8,7.728-1.041,13.191,2.04,14.669,18.307,40.166,30.224,54.318l-1.449,2.619c-12-13.772-28.048-38.945-30.163-54.159C161.073,58.469,162.207,53.227,164.491,49.609Z" transform="translate(-161.703 -43.187)" fill="#a71f29"></path><path id="&#x41A;&#x43E;&#x43D;&#x442;&#x443;&#x440;_6962" data-name="&#x41A;&#x43E;&#x43D;&#x442;&#x443;&#x440; 6962" d="M208.316,17.841a17.213,17.213,0,0,1,8.329,2.072c0-.031.01-.063.014-.095a30.955,30.955,0,0,0,.047-9.085,14.247,14.247,0,0,0-16.781,0,30.95,30.95,0,0,0,.047,9.085c0,.031.01.063.014.095a17.212,17.212,0,0,1,8.329-2.072Z" transform="translate(-193.763 -8)" fill="#a71f29"></path></g><path id="&#x41A;&#x43E;&#x43D;&#x442;&#x443;&#x440;_6963" data-name="&#x41A;&#x43E;&#x43D;&#x442;&#x443;&#x440; 6963" d="M208.634,53.764A21.587,21.587,0,0,0,199.99,55.5q.085,1.449.3,3.017c0,.031.01.063.014.095a17.778,17.778,0,0,1,16.658,0c0-.031.01-.063.014-.095q.218-1.569.3-3.017A21.585,21.585,0,0,0,208.634,53.764Z" transform="translate(-186.814 -46.701)" fill="#931d2c"></path><path id="&#x41A;&#x43E;&#x43D;&#x442;&#x443;&#x440;_6964" data-name="&#x41A;&#x43E;&#x43D;&#x442;&#x443;&#x440; 6964" d="M144.78,34.785a30.947,30.947,0,0,0,.047-9.086c4.351,3.268,7.2,9.594,5.8,19.659-2.115,15.214-18.166,40.387-30.163,54.159l-5.851-10.572C126.615,75.172,142.665,50,144.78,34.785Z" transform="translate(-114.617 -22.967)" fill="#da4a54"></path><path id="&#x41A;&#x43E;&#x43D;&#x442;&#x443;&#x440;_6965" data-name="&#x41A;&#x43E;&#x43D;&#x442;&#x443;&#x440; 6965" d="M144.78,34.785a30.947,30.947,0,0,0,.047-9.086c4.351,3.268,7.2,9.594,5.8,19.659-2.115,15.214-18.166,40.387-30.163,54.159l-5.851-10.572C126.615,75.172,142.665,50,144.78,34.785Z" transform="translate(-114.617 -22.967)" fill="#da4a54"></path><path id="&#x41A;&#x43E;&#x43D;&#x442;&#x443;&#x440;_6966" data-name="&#x41A;&#x43E;&#x43D;&#x442;&#x443;&#x440; 6966" d="M172.321,49.609c1.305,3.369,1.8,7.728,1.041,13.191-2.04,14.669-18.307,40.166-30.224,54.318l1.449,2.619c12-13.772,28.048-38.945,30.163-54.159C175.739,58.469,174.6,53.227,172.321,49.609Z" transform="translate(-138.736 -43.187)" fill="#d82e3d"></path></g><path id="&#x41A;&#x43E;&#x43D;&#x442;&#x443;&#x440;_6967" data-name="&#x41A;&#x43E;&#x43D;&#x442;&#x443;&#x440; 6967" d="M152.579,66.508c-2.634-3.024-5.386-6.5-8.18-10.338a1.16,1.16,0,1,0-1.875,1.366c2.646,3.634,5.259,6.954,7.774,9.881l-4.663,8.426A182.174,182.174,0,0,1,131.2,55.94c1.632-2.642,3.22-5.359,4.708-8.088,1.262,1.97,2.571,3.939,3.909,5.873a1.16,1.16,0,0,0,1.908-1.32c-1.572-2.272-3.1-4.592-4.561-6.905,4.062-7.78,7.181-15.512,8.047-21.745,1.305-9.388-.921-16.77-6.268-20.785l-.015-.009a15.434,15.434,0,0,0-18.178,0l-.015.01c-5.347,4.016-7.574,11.4-6.268,20.785a1.16,1.16,0,0,0,2.3-.319c-.981-7.054.158-12.8,3.218-16.547a35.814,35.814,0,0,0,.348,6.273c.8,5.744,3.632,13.362,8.2,22.06q-1.246,2.32-2.73,4.872-.905,1.554-1.865,3.123a82.435,82.435,0,0,1-6.246-15.381,1.16,1.16,0,0,0-2.239.606,87.619,87.619,0,0,0,7.059,17.071,177.5,177.5,0,0,1-15.407,21,1.16,1.16,0,0,0-.14,1.323l5.863,10.594a1.167,1.167,0,0,0,1.889.2c2.066-2.371,4.226-5.047,6.42-7.952a1.16,1.16,0,0,0-1.851-1.4c-1.781,2.358-3.537,4.56-5.236,6.566l-4.663-8.426A186.49,186.49,0,0,0,127.8,41.261c4.577-7.857,10.3-19.11,11.545-28.1a35.815,35.815,0,0,0,.348-6.273c3.059,3.746,4.2,9.493,3.218,16.547-1.647,11.847-11.876,29.528-20.9,42.125a1.16,1.16,0,0,0,1.886,1.351c1.955-2.728,3.965-5.7,5.936-8.792a179.331,179.331,0,0,0,15.131,20.507,1.168,1.168,0,0,0,1.889-.2l5.863-10.594a1.159,1.159,0,0,0-.14-1.323ZM137.172,4.553a29.135,29.135,0,0,1,.058,6.788,19.193,19.193,0,0,0-14.779,0,29.126,29.126,0,0,1,.058-6.788,13.151,13.151,0,0,1,14.663,0Zm-14.4,9.191a16.771,16.771,0,0,1,14.141,0c-.671,3.913-2.5,10.028-7.067,18.971-3.781-7.414-6.207-13.917-7.074-18.971Z" transform="translate(-106.816 0)"></path></svg>